BosaLisuMaster-ExtraLight.ufo
<glyph name="dollar" format="2">
  <advance width="457"/>
  <unicode hex="0024"/>
  <outline>
    <contour>
      <point x="228" y="32" type="curve" smooth="yes"/>
      <point x="192" y="32"/>
      <point x="150" y="36"/>
      <point x="108" y="53" type="curve"/>
      <point x="157" y="20" type="line"/>
      <point x="141" y="90" type="line" smooth="yes"/>
      <point x="130" y="138"/>
      <point x="110" y="150"/>
      <point x="88" y="150" type="curve" smooth="yes"/>
      <point x="68" y="150"/>
      <point x="55" y="140"/>
      <point x="46" y="122" type="curve"/>
      <point x="50" y="42"/>
      <point x="125" y="-11"/>
      <point x="223" y="-11" type="curve" smooth="yes"/>
      <point x="348" y="-11"/>
      <point x="424" y="57"/>
      <point x="424" y="156" type="curve" smooth="yes"/>
      <point x="424" y="231"/>
      <point x="386" y="291"/>
      <point x="262" y="334" type="curve" smooth="yes"/>
      <point x="227" y="346" type="line" smooth="yes"/>
      <point x="161" y="368"/>
      <point x="125" y="400"/>
      <point x="125" y="459" type="curve" smooth="yes"/>
      <point x="125" y="528"/>
      <point x="177" y="562"/>
      <point x="245" y="562" type="curve" smooth="yes"/>
      <point x="273" y="562"/>
      <point x="306" y="557"/>
      <point x="345" y="541" type="curve"/>
      <point x="297" y="575" type="line"/>
      <point x="312" y="505" type="line" smooth="yes"/>
      <point x="323" y="457"/>
      <point x="346" y="444"/>
      <point x="367" y="444" type="curve" smooth="yes"/>
      <point x="384" y="444"/>
      <point x="400" y="453"/>
      <point x="407" y="472" type="curve"/>
      <point x="402" y="552"/>
      <point x="328" y="607"/>
      <point x="235" y="607" type="curve" smooth="yes"/>
      <point x="129" y="607"/>
      <point x="53" y="533"/>
      <point x="53" y="439" type="curve" smooth="yes"/>
      <point x="53" y="347"/>
      <point x="110" y="298"/>
      <point x="207" y="264" type="curve" smooth="yes"/>
      <point x="241" y="252" type="line" smooth="yes"/>
      <point x="319" y="224"/>
      <point x="352" y="196"/>
      <point x="352" y="138" type="curve" smooth="yes"/>
      <point x="352" y="70"/>
      <point x="303" y="32"/>
    </contour>
    <contour>
      <point x="256" y="296" type="line"/>
      <point x="256" y="690" type="line"/>
      <point x="219" y="690" type="line"/>
      <point x="219" y="296" type="line"/>
    </contour>
    <contour>
      <point x="218" y="-105" type="line"/>
      <point x="255" y="-105" type="line"/>
      <point x="255" y="296" type="line"/>
      <point x="218" y="296" type="line"/>
    </contour>
  </outline>
</glyph>
<glyph name="percent" format="2">
  <advance width="791"/>
  <unicode hex="0025"/>
  <outline>
    <contour>
      <point x="201" y="-23" type="line"/>
      <point x="630" y="593" type="line"/>
      <point x="602" y="616" type="line"/>
      <point x="173" y="0" type="line"/>
    </contour>
    <contour>
      <point x="129" y="415" type="curve" smooth="yes"/>
      <point x="129" y="548"/>
      <point x="161" y="575"/>
      <point x="193" y="575" type="curve" smooth="yes"/>
      <point x="225" y="575"/>
      <point x="254" y="547"/>
      <point x="254" y="415" type="curve" smooth="yes"/>
      <point x="254" y="284"/>
      <point x="225" y="255"/>
      <point x="193" y="255" type="curve" smooth="yes"/>
      <point x="161" y="255"/>
      <point x="129" y="284"/>
    </contour>
    <contour>
      <point x="193" y="607" type="curve" smooth="yes"/>
      <point x="127" y="607"/>
      <point x="64" y="550"/>
      <point x="64" y="415" type="curve" smooth="yes"/>
      <point x="64" y="282"/>
      <point x="127" y="225"/>
      <point x="193" y="225" type="curve" smooth="yes"/>
      <point x="257" y="225"/>
      <point x="320" y="282"/>
      <point x="320" y="415" type="curve" smooth="yes"/>
      <point x="320" y="550"/>
      <point x="257" y="607"/>
    </contour>
    <contour>
      <point x="536" y="182" type="curve" smooth="yes"/>
      <point x="536" y="314"/>
      <point x="567" y="342"/>
      <point x="599" y="342" type="curve" smooth="yes"/>
      <point x="632" y="342"/>
      <point x="661" y="313"/>
      <point x="661" y="182" type="curve" smooth="yes"/>
      <point x="661" y="50"/>
      <point x="632" y="22"/>
      <point x="599" y="22" type="curve" smooth="yes"/>
      <point x="567" y="22"/>
      <point x="536" y="50"/>
    </contour>
    <contour>
      <point x="599" y="373" type="curve" smooth="yes"/>
      <point x="534" y="373"/>
      <point x="471" y="316"/>
      <point x="471" y="182" type="curve" smooth="yes"/>
      <point x="471" y="48"/>
      <point x="534" y="-8"/>
      <point x="599" y="-8" type="curve" smooth="yes"/>
      <point x="664" y="-8"/>
      <point x="726" y="48"/>
      <point x="726" y="182" type="curve" smooth="yes"/>
      <point x="726" y="316"/>
      <point x="664" y="373"/>
    </contour>
  </outline>
</glyph>
<glyph name="ampersand" format="2">
  <advance width="662"/>
  <unicode hex="0026"/>
  <outline>
    <contour>
      <point x="287" y="202" type="curve" smooth="yes"/>
      <point x="333" y="148"/>
      <point x="379" y="97"/>
      <point x="440" y="30" type="curve" smooth="yes"/>
      <point x="470" y="0"/>
      <point x="498" y="-11"/>
      <point x="546" y="-11" type="curve" smooth="yes"/>
      <point x="570" y="-11"/>
      <point x="588" y="-9"/>
      <point x="615" y="-2" type="curve"/>
      <point x="619" y="35" type="line"/>
      <point x="500" y="50" type="line"/>
      <point x="546" y="29" type="line"/>
      <point x="449" y="132"/>
      <point x="394" y="191"/>
      <point x="322" y="270" type="curve" smooth="yes"/>
      <point x="264" y="333"/>
      <point x="237" y="362"/>
      <point x="201" y="406" type="curve" smooth="yes"/>
      <point x="167" y="449"/>
      <point x="160" y="478"/>
      <point x="160" y="511" type="curve" smooth="yes"/>
      <point x="160" y="561"/>
      <point x="197" y="598"/>
      <point x="244" y="598" type="curve" smooth="yes"/>
      <point x="290" y="598"/>
      <point x="325" y="564"/>
      <point x="325" y="510" type="curve" smooth="yes"/>
      <point x="325" y="451"/>
      <point x="276" y="408"/>
      <point x="210" y="366" type="curve"/>
      <point x="225" y="340" type="line"/>
      <point x="335" y="396"/>
      <point x="384" y="444"/>
      <point x="384" y="512" type="curve" smooth="yes"/>
      <point x="384" y="581"/>
      <point x="335" y="630"/>
      <point x="245" y="630" type="curve" smooth="yes"/>
      <point x="160" y="630"/>
      <point x="96" y="580"/>
      <point x="96" y="500" type="curve" smooth="yes"/>
      <point x="96" y="451"/>
      <point x="114" y="404"/>
      <point x="160" y="352" type="curve" smooth="yes"/>
      <point x="203" y="302"/>
      <point x="232" y="264"/>
    </contour>
    <contour>
      <point x="405" y="119" type="curve"/>
      <point x="435" y="101" type="line"/>
      <point x="490" y="178"/>
      <point x="530" y="259"/>
      <point x="553" y="366" type="curve"/>
      <point x="511" y="366" type="line"/>
      <point x="491" y="267"/>
      <point x="456" y="191"/>
    </contour>
    <contour>
      <point x="207" y="333" type="curve"/>
      <point x="189" y="359" type="line"/>
      <point x="81" y="312"/>
      <point x="24" y="246"/>
      <point x="24" y="156" type="curve" smooth="yes"/>
      <point x="24" y="62"/>
      <point x="104" y="-11"/>
      <point x="219" y="-11" type="curve" smooth="yes"/>
      <point x="327" y="-11"/>
      <point x="392" y="39"/>
      <point x="431" y="98" type="curve"/>
      <point x="403" y="121" type="line"/>
      <point x="370" y="74"/>
      <point x="307" y="46"/>
      <point x="241" y="46" type="curve" smooth="yes"/>
      <point x="151" y="46"/>
      <point x="102" y="113"/>
      <point x="102" y="180" type="curve" smooth="yes"/>
      <point x="102" y="230"/>
      <point x="123" y="294"/>
    </contour>
    <contour>
      <point x="540" y="344" type="line"/>
      <point x="620" y="357" type="line"/>
      <point x="620" y="394" type="line"/>
      <point x="434" y="394" type="line"/>
      <point x="434" y="357" type="line"/>
      <point x="521" y="344" type="line"/>
    </contour>
  </outline>
</glyph>
<glyph name="parenleft" format="2">
  <advance width="288"/>
  <unicode hex="0028"/>
  <outline>
    <contour>
      <point x="257" y="-117" type="curve"/>
      <point x="257" y="-162" type="line"/>
      <point x="86" y="-71"/>
      <point x="36" y="47"/>
      <point x="36" y="258" type="curve" smooth="yes"/>
      <point x="36" y="467"/>
      <point x="86" y="589"/>
      <point x="257" y="677" type="curve"/>
      <point x="257" y="632" type="line"/>
      <point x="133" y="562"/>
      <point x="123" y="415"/>
      <point x="123" y="258" type="curve" smooth="yes"/>
      <point x="123" y="100"/>
      <point x="133" y="-47"/>
    </contour>
  </outline>
</glyph>
<glyph name="hyphen" format="2">
  <advance width="422"/>
  <unicode hex="002D"/>
  <outline>
    <contour>
      <point x="72" y="210" type="line"/>
      <point x="350" y="210" type="line"/>
      <point x="350" y="290" type="line"/>
      <point x="72" y="290" type="line"/>
    </contour>
  </outline>
</glyph>
<glyph name="two" format="2">
  <advance width="434"/>
  <unicode hex="0032"/>
  <outline>
    <contour>
      <point x="390" y="2" type="line"/>
      <point x="44" y="2" type="line"/>
      <point x="44" y="52" type="line" smooth="yes"/>
      <point x="44" y="79"/>
      <point x="67" y="114"/>
      <point x="114" y="155" type="curve" smooth="yes"/>
      <point x="143" y="180"/>
      <point x="185" y="217"/>
      <point x="242" y="268" type="curve" smooth="yes"/>
      <point x="289" y="311"/>
      <point x="311" y="351"/>
      <point x="311" y="388" type="curve" smooth="yes"/>
      <point x="311" y="432"/>
      <point x="270" y="462"/>
      <point x="225" y="462" type="curve" smooth="yes"/>
      <point x="169" y="462"/>
      <point x="127" y="430"/>
      <point x="122" y="376" type="curve"/>
      <point x="48" y="383" type="line"/>
      <point x="57" y="478"/>
      <point x="130" y="537"/>
      <point x="226" y="537" type="curve" smooth="yes"/>
      <point x="311" y="537"/>
      <point x="390" y="481"/>
      <point x="390" y="392" type="curve" smooth="yes"/>
      <point x="390" y="345"/>
      <point x="372" y="298"/>
      <point x="333" y="253" type="curve" smooth="yes"/>
      <point x="318" y="235"/>
      <point x="279" y="200"/>
      <point x="220" y="146" type="curve" smooth="yes"/>
      <point x="147" y="79" type="line"/>
      <point x="390" y="79" type="line"/>
    </contour>
  </outline>
</glyph>
<glyph name="five" format="2">
  <advance width="474"/>
  <unicode hex="0035"/>
  <outline>
    <contour>
      <point x="406" y="179" type="qcurve"/>
      <point x="406" y="98"/>
      <point x="307" y="-12"/>
      <point x="227" y="-12" type="qcurve"/>
      <point x="115" y="-12"/>
      <point x="65" y="103" type="qcurve"/>
      <point x="143" y="124" type="line"/>
      <point x="153" y="96"/>
      <point x="204" y="60"/>
      <point x="233" y="60" type="qcurve"/>
      <point x="277" y="60"/>
      <point x="304" y="96" type="qcurve"/>
      <point x="329" y="129"/>
      <point x="329" y="174" type="qcurve"/>
      <point x="329" y="221"/>
      <point x="275" y="290"/>
      <point x="229" y="290" type="qcurve"/>
      <point x="183" y="290"/>
      <point x="145" y="243" type="qcurve"/>
      <point x="72" y="253" type="line"/>
      <point x="122" y="532" type="line"/>
      <point x="387" y="532" type="line"/>
      <point x="387" y="454" type="line"/>
      <point x="185" y="454" type="line"/>
      <point x="165" y="344" type="line"/>
      <point x="215" y="366"/>
      <point x="246" y="366" type="qcurve"/>
      <point x="319" y="366"/>
      <point x="364" y="307" type="qcurve"/>
      <point x="406" y="253"/>
    </contour>
  </outline>
</glyph>
<glyph name="equal" format="2">
  <advance width="487"/>
  <unicode hex="003D"/>
  <outline>
    <contour>
      <point x="460" y="185" type="line"/>
      <point x="460" y="237" type="line"/>
      <point x="26" y="237" type="line"/>
      <point x="26" y="185" type="line"/>
    </contour>
    <contour>
      <point x="460" y="369" type="line"/>
      <point x="460" y="421" type="line"/>
      <point x="26" y="421" type="line"/>
      <point x="26" y="369" type="line"/>
    </contour>
  </outline>
</glyph>
<glyph name="greater" format="2">
  <advance width="487"/>
  <unicode hex="003E"/>
  <outline>
    <contour>
      <point x="434" y="324" type="line"/>
      <point x="80" y="531" type="line"/>
      <point x="53" y="483" type="line"/>
      <point x="380" y="299" type="line"/>
      <point x="380" y="308" type="line"/>
      <point x="53" y="123" type="line"/>
      <point x="80" y="75" type="line"/>
      <point x="434" y="282" type="line"/>
    </contour>
  </outline>
</glyph>
<glyph name="question" format="2">
  <advance width="386"/>
  <unicode hex="003F"/>
  <outline>
    <contour>
      <point x="156" y="-8" type="curve" smooth="yes"/>
      <point x="186" y="-8"/>
      <point x="207" y="15"/>
      <point x="207" y="41" type="curve" smooth="yes"/>
      <point x="207" y="70"/>
      <point x="186" y="92"/>
      <point x="156" y="92" type="curve" smooth="yes"/>
      <point x="126" y="92"/>
      <point x="106" y="70"/>
      <point x="106" y="41" type="curve" smooth="yes"/>
      <point x="106" y="15"/>
      <point x="126" y="-8"/>
    </contour>
    <contour>
      <point x="326" y="442" type="curve" smooth="yes"/>
      <point x="326" y="506"/>
      <point x="271" y="558"/>
      <point x="182" y="558" type="curve" smooth="yes"/>
      <point x="108" y="558"/>
      <point x="40" y="526"/>
      <point x="30" y="437" type="curve"/>
      <point x="94" y="437" type="line"/>
      <point x="101" y="479"/>
      <point x="134" y="494"/>
      <point x="182" y="494" type="curve" smooth="yes"/>
      <point x="234" y="494"/>
      <point x="258" y="470"/>
      <point x="258" y="434" type="curve" smooth="yes"/>
      <point x="258" y="410"/>
      <point x="239" y="390"/>
      <point x="202" y="353" type="curve" smooth="yes"/>
      <point x="155" y="306"/>
      <point x="122" y="272"/>
      <point x="122" y="215" type="curve" smooth="yes"/>
      <point x="122" y="177" type="line"/>
      <point x="190" y="177" type="line"/>
      <point x="190" y="215" type="line" smooth="yes"/>
      <point x="190" y="251"/>
      <point x="212" y="274"/>
      <point x="254" y="314" type="curve" smooth="yes"/>
      <point x="296" y="355"/>
      <point x="326" y="386"/>
    </contour>
  </outline>
</glyph>
<glyph name="C" format="2">
  <advance width="581"/>
  <unicode hex="0043"/>
  <anchor x="341" y="635" name="aboveUC"/>
  <anchor x="348" y="0" name="baseLC"/>
  <anchor x="347" y="-20" name="belowLC"/>
  <outline>
    <contour>
      <point x="44" y="120"/>
      <point x="169" y="-13"/>
      <point x="355" y="-13" type="curve" smooth="yes"/>
      <point x="419" y="-13"/>
      <point x="483" y="0"/>
      <point x="540" y="30" type="curve"/>
      <point x="544" y="163" type="line"/>
      <point x="488" y="163" type="line"/>
      <point x="465" y="27" type="line"/>
      <point x="522" y="40" type="line"/>
      <point x="522" y="91" type="line"/>
      <point x="470" y="47"/>
      <point x="411" y="32"/>
      <point x="358" y="32" type="curve" smooth="yes"/>
      <point x="230" y="32"/>
      <point x="140" y="128"/>
      <point x="140" y="308" type="curve" smooth="yes"/>
      <point x="140" y="487"/>
      <point x="241" y="584"/>
      <point x="365" y="584" type="curve" smooth="yes"/>
      <point x="409" y="584"/>
      <point x="460" y="568"/>
      <point x="513" y="519" type="curve"/>
      <point x="513" y="575" type="line"/>
      <point x="456" y="588" type="line"/>
      <point x="479" y="452" type="line"/>
      <point x="535" y="452" type="line"/>
      <point x="531" y="586" type="line"/>
      <point x="469" y="621"/>
      <point x="403" y="630"/>
      <point x="354" y="630" type="curve" smooth="yes"/>
      <point x="174" y="630"/>
      <point x="44" y="492"/>
      <point x="44" y="308" type="curve" smooth="yes"/>
    </contour>
  </outline>
</glyph>
<glyph name="D" format="2">
  <advance width="653"/>
  <unicode hex="0044"/>
  <anchor x="304" y="635" name="aboveUC"/>
  <anchor x="306" y="-20" name="belowLC"/>
  <outline>
    <contour>
      <point x="170" y="0" type="line"/>
      <point x="294" y="0" type="line" smooth="yes"/>
      <point x="472" y="0"/>
      <point x="609" y="108"/>
      <point x="609" y="307" type="curve" smooth="yes"/>
      <point x="609" y="507"/>
      <point x="487" y="616"/>
      <point x="312" y="616" type="curve" smooth="yes"/>
      <point x="170" y="616" type="line"/>
      <point x="170" y="574" type="line"/>
      <point x="297" y="574" type="line" smooth="yes"/>
      <point x="433" y="574"/>
      <point x="512" y="481"/>
      <point x="512" y="307" type="curve" smooth="yes"/>
      <point x="512" y="139"/>
      <point x="433" y="42"/>
      <point x="288" y="42" type="curve" smooth="yes"/>
      <point x="170" y="42" type="line"/>
    </contour>
    <contour>
      <point x="41" y="0" type="line"/>
      <point x="170" y="0" type="line"/>
      <point x="170" y="50" type="line"/>
      <point x="161" y="50" type="line"/>
      <point x="41" y="36" type="line"/>
    </contour>
    <contour>
      <point x="126" y="0" type="curve"/>
      <point x="214" y="0" type="line"/>
      <point x="211" y="94"/>
      <point x="211" y="190"/>
      <point x="211" y="296" type="curve" smooth="yes"/>
      <point x="211" y="331" type="line" smooth="yes"/>
      <point x="211" y="427"/>
      <point x="211" y="523"/>
      <point x="214" y="616" type="curve"/>
      <point x="126" y="616" type="line"/>
      <point x="128" y="521"/>
      <point x="128" y="425"/>
      <point x="128" y="331" type="curve" smooth="yes"/>
      <point x="128" y="296" type="line" smooth="yes"/>
      <point x="128" y="188"/>
      <point x="128" y="92"/>
    </contour>
    <contour>
      <point x="161" y="565" type="line"/>
      <point x="170" y="565" type="line"/>
      <point x="170" y="616" type="line"/>
      <point x="41" y="616" type="line"/>
      <point x="41" y="579" type="line"/>
    </contour>
  </outline>
</glyph>
<glyph name="F" format="2">
  <advance width="532"/>
  <unicode hex="0046"/>
  <anchor x="305" y="635" name="aboveUC"/>
  <anchor x="168" y="-20" name="belowLC"/>
  <outline>
    <contour>
      <point x="41" y="0" type="line"/>
      <point x="299" y="0" type="line"/>
      <point x="299" y="36" type="line"/>
      <point x="179" y="50" type="line"/>
      <point x="161" y="50" type="line"/>
      <point x="41" y="36" type="line"/>
    </contour>
    <contour>
      <point x="128" y="188"/>
      <point x="128" y="92"/>
      <point x="126" y="0" type="curve"/>
      <point x="214" y="0" type="line"/>
      <point x="211" y="94"/>
      <point x="211" y="190"/>
      <point x="211" y="296" type="curve" smooth="yes"/>
      <point x="211" y="331" type="line" smooth="yes"/>
      <point x="211" y="427"/>
      <point x="211" y="523"/>
      <point x="214" y="616" type="curve"/>
      <point x="126" y="616" type="line"/>
      <point x="128" y="521"/>
      <point x="128" y="425"/>
      <point x="128" y="331" type="curve" smooth="yes"/>
      <point x="128" y="285" type="line" smooth="yes"/>
    </contour>
    <contour>
      <point x="170" y="293" type="line"/>
      <point x="385" y="293" type="line"/>
      <point x="385" y="335" type="line"/>
      <point x="170" y="335" type="line"/>
    </contour>
    <contour>
      <point x="369" y="196" type="line"/>
      <point x="411" y="196" type="line"/>
      <point x="411" y="424" type="line"/>
      <point x="369" y="424" type="line"/>
      <point x="356" y="326" type="line"/>
      <point x="356" y="299" type="line"/>
    </contour>
    <contour>
      <point x="41" y="579" type="line"/>
      <point x="161" y="565" type="line"/>
      <point x="170" y="565" type="line"/>
      <point x="170" y="616" type="line"/>
      <point x="41" y="616" type="line"/>
    </contour>
    <contour>
      <point x="453" y="452" type="line"/>
      <point x="505" y="452" type="line"/>
      <point x="498" y="616" type="line"/>
      <point x="170" y="616" type="line"/>
      <point x="170" y="570" type="line"/>
      <point x="460" y="570" type="line"/>
      <point x="428" y="598" type="line"/>
    </contour>
  </outline>
</glyph>
<glyph name="G" format="2">
  <advance width="627"/>
  <unicode hex="0047"/>
  <anchor x="348" y="635" name="aboveUC"/>
  <anchor x="362" y="-20" name="belowLC"/>
  <outline>
    <contour>
      <point x="44" y="123"/>
      <point x="169" y="-13"/>
      <point x="353" y="-13" type="curve" smooth="yes"/>
      <point x="429" y="-13"/>
      <point x="492" y="7"/>
      <point x="555" y="40" type="curve"/>
      <point x="555" y="80" type="line" smooth="yes"/>
      <point x="555" y="152"/>
      <point x="556" y="223"/>
      <point x="558" y="292" type="curve"/>
      <point x="470" y="292" type="line"/>
      <point x="471" y="222"/>
      <point x="472" y="150"/>
      <point x="472" y="80" type="curve" smooth="yes"/>
      <point x="472" y="27" type="line"/>
      <point x="514" y="70" type="line"/>
      <point x="461" y="45"/>
      <point x="423" y="33"/>
      <point x="370" y="33" type="curve" smooth="yes"/>
      <point x="227" y="33"/>
      <point x="140" y="133"/>
      <point x="140" y="308" type="curve" smooth="yes"/>
      <point x="140" y="483"/>
      <point x="235" y="584"/>
      <point x="364" y="584" type="curve" smooth="yes"/>
      <point x="423" y="584"/>
      <point x="473" y="563"/>
      <point x="523" y="517" type="curve"/>
      <point x="523" y="570" type="line"/>
      <point x="466" y="588" type="line"/>
      <point x="489" y="452" type="line"/>
      <point x="545" y="452" type="line"/>
      <point x="541" y="586" type="line"/>
      <point x="490" y="616"/>
      <point x="433" y="630"/>
      <point x="356" y="630" type="curve" smooth="yes"/>
      <point x="170" y="630"/>
      <point x="44" y="493"/>
      <point x="44" y="308" type="curve" smooth="yes"/>
    </contour>
    <contour>
      <point x="374" y="255" type="line"/>
      <point x="494" y="246" type="line"/>
      <point x="512" y="246" type="line"/>
      <point x="613" y="255" type="line"/>
      <point x="613" y="292" type="line"/>
      <point x="374" y="292" type="line"/>
    </contour>
  </outline>
</glyph>
<glyph name="I" format="2">
  <advance width="340"/>
  <unicode hex="0049"/>
  <anchor x="170" y="635" name="aboveUC"/>
  <anchor x="170" y="-20" name="belowLC"/>
  <anchor x="206" y="0" name="ogonek"/>
  <outline>
    <contour>
      <point x="41" y="0" type="line"/>
      <point x="299" y="0" type="line"/>
      <point x="299" y="36" type="line"/>
      <point x="179" y="50" type="line"/>
      <point x="161" y="50" type="line"/>
      <point x="41" y="36" type="line"/>
    </contour>
    <contour>
      <point x="128" y="188"/>
      <point x="128" y="92"/>
      <point x="126" y="0" type="curve"/>
      <point x="214" y="0" type="line"/>
      <point x="211" y="94"/>
      <point x="211" y="190"/>
      <point x="211" y="285" type="curve" smooth="yes"/>
      <point x="211" y="331" type="line" smooth="yes"/>
      <point x="211" y="427"/>
      <point x="211" y="523"/>
      <point x="214" y="616" type="curve"/>
      <point x="126" y="616" type="line"/>
      <point x="128" y="521"/>
      <point x="128" y="425"/>
      <point x="128" y="331" type="curve" smooth="yes"/>
      <point x="128" y="285" type="line" smooth="yes"/>
    </contour>
    <contour>
      <point x="41" y="579" type="line"/>
      <point x="161" y="565" type="line"/>
      <point x="179" y="565" type="line"/>
      <point x="299" y="579" type="line"/>
      <point x="299" y="616" type="line"/>
      <point x="41" y="616" type="line"/>
    </contour>
  </outline>
</glyph>
<glyph name="J" format="2">
  <advance width="343"/>
  <unicode hex="004A"/>
  <anchor x="181" y="635" name="aboveUC"/>
  <anchor x="86" y="-150" name="belowLC"/>
  <outline>
    <contour>
      <point x="-28" y="-139"/>
      <point x="7" y="-149"/>
      <point x="41" y="-149" type="curve" smooth="yes"/>
      <point x="90" y="-149"/>
      <point x="136" y="-129"/>
      <point x="165" y="-100" type="curve" smooth="yes"/>
      <point x="215" y="-50"/>
      <point x="223" y="-2"/>
      <point x="223" y="184" type="curve" smooth="yes"/>
      <point x="223" y="331" type="line" smooth="yes"/>
      <point x="223" y="427"/>
      <point x="223" y="523"/>
      <point x="226" y="616" type="curve"/>
      <point x="138" y="616" type="line"/>
      <point x="142" y="155"/>
      <point x="147" y="59"/>
      <point x="147" y="4" type="curve" smooth="yes"/>
      <point x="147" y="-53"/>
      <point x="135" y="-87"/>
      <point x="100" y="-114" type="curve"/>
      <point x="102" y="-121" type="line"/>
      <point x="109" y="-120" type="line"/>
      <point x="116" y="-110" type="line"/>
      <point x="86" y="-87" type="line" smooth="yes"/>
      <point x="60" y="-68"/>
      <point x="41" y="-60"/>
      <point x="18" y="-60" type="curve" smooth="yes"/>
      <point x="-10" y="-60"/>
      <point x="-31" y="-71"/>
      <point x="-36" y="-104" type="curve"/>
    </contour>
    <contour>
      <point x="44" y="579" type="line"/>
      <point x="172" y="565" type="line"/>
      <point x="191" y="565" type="line"/>
      <point x="310" y="579" type="line"/>
      <point x="310" y="616" type="line"/>
      <point x="44" y="616" type="line"/>
    </contour>
  </outline>
</glyph>
<glyph name="K" format="2">
  <advance width="611"/>
  <unicode hex="004B"/>
  <anchor x="326" y="635" name="aboveUC"/>
  <anchor x="333" y="-20" name="belowLC"/>
  <outline>
    <contour>
      <point x="41" y="0" type="line"/>
      <point x="299" y="0" type="line"/>
      <point x="299" y="36" type="line"/>
      <point x="179" y="50" type="line"/>
      <point x="161" y="50" type="line"/>
      <point x="41" y="36" type="line"/>
    </contour>
    <contour>
      <point x="128" y="188"/>
      <point x="128" y="92"/>
      <point x="126" y="0" type="curve"/>
      <point x="211" y="0" type="line"/>
      <point x="208" y="94"/>
      <point x="208" y="190"/>
      <point x="208" y="261" type="curve" smooth="yes"/>
      <point x="208" y="331" type="line" smooth="yes"/>
      <point x="208" y="427"/>
      <point x="208" y="523"/>
      <point x="211" y="616" type="curve"/>
      <point x="126" y="616" type="line"/>
      <point x="128" y="521"/>
      <point x="128" y="425"/>
      <point x="128" y="331" type="curve" smooth="yes"/>
      <point x="128" y="285" type="line" smooth="yes"/>
    </contour>
    <contour>
      <point x="168" y="162" type="line"/>
      <point x="545" y="616" type="line"/>
      <point x="490" y="616" type="line"/>
      <point x="168" y="222" type="line"/>
    </contour>
    <contour>
      <point x="372" y="0" type="line"/>
      <point x="607" y="0" type="line"/>
      <point x="607" y="36" type="line"/>
      <point x="496" y="50" type="line"/>
      <point x="483" y="50" type="line"/>
      <point x="372" y="36" type="line"/>
    </contour>
    <contour>
      <point x="474" y="0" type="line"/>
      <point x="561" y="0" type="line"/>
      <point x="338" y="400" type="line"/>
      <point x="290" y="343" type="line"/>
    </contour>
    <contour>
      <point x="41" y="579" type="line"/>
      <point x="161" y="565" type="line"/>
      <point x="179" y="565" type="line"/>
      <point x="299" y="579" type="line"/>
      <point x="299" y="616" type="line"/>
      <point x="41" y="616" type="line"/>
    </contour>
    <contour>
      <point x="382" y="579" type="line"/>
      <point x="474" y="561" type="line"/>
      <point x="493" y="565" type="line"/>
      <point x="594" y="579" type="line"/>
      <point x="594" y="616" type="line"/>
      <point x="382" y="616" type="line"/>
    </contour>
  </outline>
</glyph>
<glyph name="L" format="2">
  <advance width="549"/>
  <unicode hex="004C"/>
  <anchor x="177" y="635" name="aboveUC"/>
  <anchor x="300" y="-20" name="belowLC"/>
  <outline>
    <contour>
      <point x="41" y="0" type="line"/>
      <point x="170" y="0" type="line"/>
      <point x="170" y="50" type="line"/>
      <point x="161" y="50" type="line"/>
      <point x="41" y="36" type="line"/>
    </contour>
    <contour>
      <point x="128" y="190"/>
      <point x="128" y="94"/>
      <point x="126" y="0" type="curve"/>
      <point x="214" y="0" type="line"/>
      <point x="211" y="92"/>
      <point x="211" y="188"/>
      <point x="211" y="266" type="curve" smooth="yes"/>
      <point x="211" y="331" type="line" smooth="yes"/>
      <point x="211" y="425"/>
      <point x="211" y="521"/>
      <point x="214" y="616" type="curve"/>
      <point x="126" y="616" type="line"/>
      <point x="128" y="523"/>
      <point x="128" y="427"/>
      <point x="128" y="331" type="curve" smooth="yes"/>
      <point x="128" y="285" type="line" smooth="yes"/>
    </contour>
    <contour>
      <point x="170" y="0" type="line"/>
      <point x="498" y="0" type="line"/>
      <point x="507" y="172" type="line"/>
      <point x="452" y="172" type="line"/>
      <point x="420" y="19" type="line"/>
      <point x="453" y="46" type="line"/>
      <point x="170" y="46" type="line"/>
    </contour>
    <contour>
      <point x="41" y="579" type="line"/>
      <point x="161" y="565" type="line"/>
      <point x="179" y="565" type="line"/>
      <point x="299" y="579" type="line"/>
      <point x="299" y="616" type="line"/>
      <point x="41" y="616" type="line"/>
    </contour>
  </outline>
</glyph>
<glyph name="N" format="2">
  <advance width="676"/>
  <unicode hex="004E"/>
  <anchor x="333" y="635" name="aboveUC"/>
  <anchor x="345" y="-20" name="belowLC"/>
  <outline>
    <contour>
      <point x="36" y="0" type="line"/>
      <point x="257" y="0" type="line"/>
      <point x="257" y="36" type="line"/>
      <point x="151" y="50" type="line"/>
      <point x="133" y="50" type="line"/>
      <point x="36" y="36" type="line"/>
    </contour>
    <contour>
      <point x="115" y="0" type="line"/>
      <point x="161" y="0" type="line"/>
      <point x="161" y="595" type="line"/>
      <point x="115" y="595" type="line"/>
    </contour>
    <contour>
      <point x="418" y="579" type="line"/>
      <point x="529" y="565" type="line"/>
      <point x="547" y="565" type="line"/>
      <point x="639" y="579" type="line"/>
      <point x="639" y="616" type="line"/>
      <point x="418" y="616" type="line"/>
    </contour>
    <contour>
      <point x="531" y="-6" type="line"/>
      <point x="561" y="-6" type="line"/>
      <point x="561" y="616" type="line"/>
      <point x="515" y="616" type="line"/>
      <point x="515" y="154" type="line"/>
      <point x="179" y="616" type="line"/>
      <point x="41" y="616" type="line"/>
      <point x="41" y="579" type="line"/>
      <point x="106" y="571" type="line"/>
    </contour>
  </outline>
</glyph>
<glyph name="S" format="2">
  <advance width="469"/>
  <unicode hex="0053"/>
  <anchor x="236" y="635" name="aboveUC"/>
  <anchor x="222" y="0" name="baseLC"/>
  <anchor x="224" y="-20" name="belowLC"/>
  <outline>
    <contour>
      <point x="215" y="-13" type="curve" smooth="yes"/>
      <point x="341" y="-13"/>
      <point x="432" y="52"/>
      <point x="432" y="161" type="curve" smooth="yes"/>
      <point x="432" y="247"/>
      <point x="385" y="300"/>
      <point x="264" y="347" type="curve" smooth="yes"/>
      <point x="228" y="361" type="line" smooth="yes"/>
      <point x="161" y="387"/>
      <point x="123" y="421"/>
      <point x="123" y="479" type="curve" smooth="yes"/>
      <point x="123" y="548"/>
      <point x="177" y="584"/>
      <point x="249" y="584" type="curve" smooth="yes"/>
      <point x="298" y="584"/>
      <point x="332" y="568"/>
      <point x="377" y="524" type="curve"/>
      <point x="377" y="570" type="line"/>
      <point x="318" y="600" type="line"/>
      <point x="344" y="461" type="line"/>
      <point x="399" y="461" type="line"/>
      <point x="404" y="581" type="line"/>
      <point x="365" y="610"/>
      <point x="316" y="630"/>
      <point x="254" y="630" type="curve" smooth="yes"/>
      <point x="138" y="630"/>
      <point x="48" y="565"/>
      <point x="48" y="460" type="curve" smooth="yes"/>
      <point x="48" y="366"/>
      <point x="113" y="312"/>
      <point x="207" y="276" type="curve" smooth="yes"/>
      <point x="241" y="262" type="line" smooth="yes"/>
      <point x="322" y="230"/>
      <point x="357" y="204"/>
      <point x="357" y="144" type="curve" smooth="yes"/>
      <point x="357" y="72"/>
      <point x="299" y="32"/>
      <point x="212" y="32" type="curve" smooth="yes"/>
      <point x="149" y="32"/>
      <point x="118" y="50"/>
      <point x="61" y="92" type="curve"/>
      <point x="61" y="47" type="line"/>
      <point x="121" y="22" type="line"/>
      <point x="97" y="163" type="line"/>
      <point x="42" y="163" type="line"/>
      <point x="36" y="34" type="line"/>
      <point x="79" y="8"/>
      <point x="146" y="-13"/>
    </contour>
  </outline>
</glyph>
<glyph name="X" format="2">
  <advance width="596"/>
  <unicode hex="0058"/>
  <anchor x="297" y="635" name="aboveUC"/>
  <anchor x="287" y="-20" name="belowLC"/>
  <outline>
    <contour>
      <point x="9" y="0" type="line"/>
      <point x="220" y="0" type="line"/>
      <point x="220" y="36" type="line"/>
      <point x="128" y="50" type="line"/>
      <point x="110" y="50" type="line"/>
      <point x="9" y="36" type="line"/>
    </contour>
    <contour>
      <point x="66" y="0" type="line"/>
      <point x="117" y="0" type="line"/>
      <point x="309" y="301" type="line"/>
      <point x="279" y="325" type="line"/>
    </contour>
    <contour>
      <point x="329" y="0" type="line"/>
      <point x="586" y="0" type="line"/>
      <point x="586" y="36" type="line"/>
      <point x="467" y="50" type="line"/>
      <point x="448" y="50" type="line"/>
      <point x="329" y="36" type="line"/>
    </contour>
    <contour>
      <point x="306" y="290" type="line"/>
      <point x="517" y="616" type="line"/>
      <point x="465" y="616" type="line"/>
      <point x="276" y="314" type="line"/>
    </contour>
    <contour>
      <point x="443" y="0" type="line"/>
      <point x="535" y="0" type="line"/>
      <point x="163" y="616" type="line"/>
      <point x="71" y="616" type="line"/>
    </contour>
    <contour>
      <point x="17" y="579" type="line"/>
      <point x="137" y="565" type="line"/>
      <point x="155" y="565" type="line"/>
      <point x="275" y="579" type="line"/>
      <point x="275" y="616" type="line"/>
      <point x="17" y="616" type="line"/>
    </contour>
    <contour>
      <point x="356" y="579" type="line"/>
      <point x="448" y="565" type="line"/>
      <point x="466" y="565" type="line"/>
      <point x="567" y="579" type="line"/>
      <point x="567" y="616" type="line"/>
      <point x="356" y="616" type="line"/>
    </contour>
  </outline>
</glyph>
<glyph name="Z" format="2">
  <advance width="506"/>
  <unicode hex="005A"/>
  <anchor x="260" y="635" name="aboveUC"/>
  <anchor x="260" y="-20" name="belowLC"/>
  <outline>
    <contour>
      <point x="18" y="0" type="line"/>
      <point x="480" y="0" type="line"/>
      <point x="487" y="163" type="line"/>
      <point x="432" y="163" type="line"/>
      <point x="402" y="19" type="line"/>
      <point x="435" y="46" type="line"/>
      <point x="89" y="46" type="line"/>
      <point x="102" y="23" type="line"/>
      <point x="467" y="584" type="line"/>
      <point x="467" y="616" type="line"/>
      <point x="34" y="616" type="line"/>
      <point x="27" y="452" type="line"/>
      <point x="82" y="452" type="line"/>
      <point x="113" y="597" type="line"/>
      <point x="80" y="570" type="line"/>
      <point x="397" y="570" type="line"/>
      <point x="384" y="593" type="line"/>
      <point x="18" y="32" type="line"/>
    </contour>
  </outline>
</glyph>
<glyph name="backslash" format="2">
  <advance width="300"/>
  <unicode hex="005C"/>
  <outline>
    <contour>
      <point x="299" y="-147" type="line"/>
      <point x="53" y="653" type="line"/>
      <point x="1" y="653" type="line"/>
      <point x="247" y="-147" type="line"/>
    </contour>
  </outline>
</glyph>
<glyph name="asciicircum" format="2">
  <advance width="487"/>
  <unicode hex="005E"/>
  <outline>
    <contour>
      <point x="82" y="223" type="line"/>
      <point x="122" y="193" type="line"/>
      <point x="260" y="412" type="line"/>
      <point x="230" y="412" type="line"/>
      <point x="368" y="193" type="line"/>
      <point x="407" y="223" type="line"/>
      <point x="274" y="441" type="line"/>
      <point x="216" y="441" type="line"/>
    </contour>
  </outline>
</glyph>
<glyph name="b" format="2">
  <advance width="529"/>
  <unicode hex="0062"/>
  <anchor x="120" y="679" name="aboveLC"/>
  <anchor x="300" y="-20" name="belowLC"/>
  <outline>
    <contour>
      <point x="27" y="0" type="line"/>
      <point x="163" y="-9" type="line"/>
      <point x="172" y="72" type="line"/>
      <point x="172" y="354" type="line"/>
      <point x="170" y="366" type="line"/>
      <point x="170" y="542" type="line"/>
      <point x="173" y="673" type="line"/>
      <point x="161" y="680" type="line"/>
      <point x="23" y="639" type="line"/>
      <point x="23" y="607" type="line"/>
      <point x="99" y="598" type="line"/>
      <point x="99" y="193" type="line" smooth="yes"/>
      <point x="99" y="151"/>
      <point x="98" y="91"/>
      <point x="97" y="45" type="curve"/>
      <point x="27" y="32" type="line"/>
    </contour>
    <contour>
      <point x="195" y="9"/>
      <point x="246" y="-11"/>
      <point x="298" y="-11" type="curve" smooth="yes"/>
      <point x="405" y="-11"/>
      <point x="486" y="80"/>
      <point x="486" y="222" type="curve" smooth="yes"/>
      <point x="486" y="364"/>
      <point x="409" y="448"/>
      <point x="311" y="448" type="curve" smooth="yes"/>
      <point x="253" y="448"/>
      <point x="199" y="418"/>
      <point x="149" y="350" type="curve"/>
      <point x="136" y="350" type="line"/>
      <point x="144" y="315" type="line"/>
      <point x="211" y="382"/>
      <point x="256" y="397"/>
      <point x="289" y="397" type="curve" smooth="yes"/>
      <point x="359" y="397"/>
      <point x="408" y="333"/>
      <point x="408" y="214" type="curve" smooth="yes"/>
      <point x="408" y="95"/>
      <point x="351" y="38"/>
      <point x="285" y="38" type="curve" smooth="yes"/>
      <point x="241" y="38"/>
      <point x="192" y="62"/>
      <point x="144" y="123" type="curve"/>
      <point x="136" y="85" type="line"/>
      <point x="149" y="85" type="line"/>
    </contour>
  </outline>
</glyph>
<glyph name="g" format="2">
  <advance width="474"/>
  <unicode hex="0067"/>
  <anchor x="238" y="465" name="aboveLC"/>
  <anchor x="242" y="-223" name="belowLC"/>
  <outline>
    <contour>
      <point x="34" y="-174"/>
      <point x="92" y="-220"/>
      <point x="224" y="-220" type="curve" smooth="yes"/>
      <point x="373" y="-220"/>
      <point x="448" y="-141"/>
      <point x="448" y="-62" type="curve" smooth="yes"/>
      <point x="448" y="11"/>
      <point x="402" y="55"/>
      <point x="303" y="55" type="curve" smooth="yes"/>
      <point x="182" y="55" type="line" smooth="yes"/>
      <point x="138" y="55"/>
      <point x="128" y="71"/>
      <point x="128" y="96" type="curve" smooth="yes"/>
      <point x="128" y="124"/>
      <point x="140" y="144"/>
      <point x="168" y="173" type="curve"/>
      <point x="137" y="187" type="line"/>
      <point x="137" y="177" type="line"/>
      <point x="82" y="128"/>
      <point x="64" y="96"/>
      <point x="64" y="66" type="curve" smooth="yes"/>
      <point x="64" y="27"/>
      <point x="88" y="3"/>
      <point x="135" y="-6" type="curve"/>
      <point x="135" y="-9" type="line"/>
      <point x="149" y="-11"/>
      <point x="165" y="-11"/>
      <point x="181" y="-11" type="curve" smooth="yes"/>
      <point x="289" y="-11" type="line" smooth="yes"/>
      <point x="356" y="-11"/>
      <point x="382" y="-43"/>
      <point x="382" y="-84" type="curve" smooth="yes"/>
      <point x="382" y="-137"/>
      <point x="328" y="-179"/>
      <point x="227" y="-179" type="curve" smooth="yes"/>
      <point x="155" y="-179"/>
      <point x="108" y="-155"/>
      <point x="108" y="-94" type="curve" smooth="yes"/>
      <point x="108" y="-58"/>
      <point x="123" y="-31"/>
      <point x="160" y="4" type="curve"/>
      <point x="155" y="10" type="line"/>
      <point x="62" y="-29"/>
      <point x="34" y="-63"/>
      <point x="34" y="-108" type="curve" smooth="yes"/>
    </contour>
    <contour>
      <point x="55" y="195"/>
      <point x="125" y="146"/>
      <point x="219" y="146" type="curve" smooth="yes"/>
      <point x="312" y="146"/>
      <point x="384" y="199"/>
      <point x="384" y="297" type="curve" smooth="yes"/>
      <point x="384" y="398"/>
      <point x="314" y="448"/>
      <point x="220" y="448" type="curve" smooth="yes"/>
      <point x="126" y="448"/>
      <point x="55" y="394"/>
      <point x="55" y="297" type="curve" smooth="yes"/>
    </contour>
    <contour>
      <point x="312" y="231"/>
      <point x="276" y="183"/>
      <point x="217" y="183" type="curve" smooth="yes"/>
      <point x="160" y="183"/>
      <point x="126" y="229"/>
      <point x="126" y="296" type="curve" smooth="yes"/>
      <point x="126" y="363"/>
      <point x="162" y="411"/>
      <point x="221" y="411" type="curve" smooth="yes"/>
      <point x="279" y="411"/>
      <point x="312" y="365"/>
      <point x="312" y="299" type="curve" smooth="yes"/>
    </contour>
    <contour>
      <point x="312" y="381" type="line"/>
      <point x="453" y="381" type="line"/>
      <point x="453" y="438" type="line"/>
      <point x="439" y="448" type="line"/>
      <point x="318" y="406" type="line"/>
      <point x="312" y="406" type="line"/>
    </contour>
  </outline>
</glyph>
<glyph name="h" format="2">
  <advance width="552"/>
  <unicode hex="0068"/>
  <anchor x="126" y="679" name="aboveLC"/>
  <anchor x="287" y="-20" name="belowLC"/>
  <outline>
    <contour>
      <point x="27" y="0" type="line"/>
      <point x="239" y="0" type="line"/>
      <point x="239" y="32" type="line"/>
      <point x="147" y="50" type="line"/>
      <point x="128" y="50" type="line"/>
      <point x="27" y="32" type="line"/>
    </contour>
    <contour>
      <point x="99" y="136"/>
      <point x="98" y="41"/>
      <point x="96" y="0" type="curve"/>
      <point x="175" y="0" type="line"/>
      <point x="173" y="41"/>
      <point x="172" y="136"/>
      <point x="172" y="193" type="curve" smooth="yes"/>
      <point x="172" y="335" type="line"/>
      <point x="170" y="347" type="line"/>
      <point x="170" y="542" type="line"/>
      <point x="173" y="673" type="line"/>
      <point x="161" y="680" type="line"/>
      <point x="23" y="639" type="line"/>
      <point x="23" y="607" type="line"/>
      <point x="99" y="598" type="line"/>
      <point x="99" y="193" type="line" smooth="yes"/>
    </contour>
    <contour>
      <point x="311" y="0" type="line"/>
      <point x="523" y="0" type="line"/>
      <point x="523" y="32" type="line"/>
      <point x="431" y="50" type="line"/>
      <point x="413" y="50" type="line"/>
      <point x="311" y="32" type="line"/>
    </contour>
    <contour>
      <point x="382" y="134"/>
      <point x="381" y="41"/>
      <point x="379" y="0" type="curve"/>
      <point x="459" y="0" type="line"/>
      <point x="457" y="41"/>
      <point x="456" y="134"/>
      <point x="456" y="193" type="curve" smooth="yes"/>
      <point x="456" y="277" type="line" smooth="yes"/>
      <point x="456" y="399"/>
      <point x="418" y="448"/>
      <point x="339" y="448" type="curve" smooth="yes"/>
      <point x="276" y="448"/>
      <point x="206" y="406"/>
      <point x="161" y="353" type="curve"/>
      <point x="151" y="353" type="line"/>
      <point x="169" y="320" type="line"/>
      <point x="221" y="367"/>
      <point x="259" y="383"/>
      <point x="305" y="383" type="curve" smooth="yes"/>
      <point x="360" y="383"/>
      <point x="382" y="356"/>
      <point x="382" y="270" type="curve" smooth="yes"/>
      <point x="382" y="193" type="line" smooth="yes"/>
    </contour>
  </outline>
</glyph>
<glyph name="o" format="2">
  <advance width="504"/>
  <unicode hex="006F"/>
  <anchor x="252" y="465" name="aboveLC"/>
  <anchor x="253" y="-20" name="belowLC"/>
  <anchor x="360" y="441" name="hornLC"/>
  <anchor x="322" y="0" name="ogonek"/>
  <outline>
    <contour>
      <point x="252" y="-11" type="curve" smooth="yes"/>
      <point x="356" y="-11"/>
      <point x="461" y="63"/>
      <point x="461" y="216" type="curve" smooth="yes"/>
      <point x="461" y="368"/>
      <point x="356" y="448"/>
      <point x="252" y="448" type="curve" smooth="yes"/>
      <point x="146" y="448"/>
      <point x="42" y="368"/>
      <point x="42" y="216" type="curve" smooth="yes"/>
      <point x="42" y="63"/>
      <point x="146" y="-11"/>
    </contour>
    <contour>
      <point x="252" y="29" type="curve" smooth="yes"/>
      <point x="170" y="29"/>
      <point x="125" y="92"/>
      <point x="125" y="216" type="curve" smooth="yes"/>
      <point x="125" y="339"/>
      <point x="170" y="406"/>
      <point x="252" y="406" type="curve" smooth="yes"/>
      <point x="332" y="406"/>
      <point x="379" y="339"/>
      <point x="379" y="216" type="curve" smooth="yes"/>
      <point x="379" y="92"/>
      <point x="332" y="29"/>
    </contour>
  </outline>
</glyph>
<glyph name="p" format="2">
  <advance width="534"/>
  <unicode hex="0070"/>
  <anchor x="279" y="465" name="aboveLC"/>
  <anchor x="149" y="-230" name="belowLC"/>
  <outline>
    <contour>
      <point x="32" y="-220" type="line"/>
      <point x="267" y="-220" type="line"/>
      <point x="267" y="-188" type="line"/>
      <point x="154" y="-170" type="line"/>
      <point x="136" y="-170" type="line"/>
      <point x="32" y="-188" type="line"/>
    </contour>
    <contour>
      <point x="109" y="-92"/>
      <point x="108" y="-156"/>
      <point x="106" y="-220" type="curve"/>
      <point x="183" y="-220" type="line"/>
      <point x="181" y="-156"/>
      <point x="180" y="-90"/>
      <point x="180" y="-25" type="curve" smooth="yes"/>
      <point x="180" y="66" type="line"/>
      <point x="183" y="71" type="line"/>
      <point x="183" y="358" type="line"/>
      <point x="179" y="360" type="line"/>
      <point x="172" y="438" type="line"/>
      <point x="158" y="448" type="line"/>
      <point x="33" y="392" type="line"/>
      <point x="33" y="360" type="line"/>
      <point x="106" y="352" type="line"/>
      <point x="108" y="315"/>
      <point x="109" y="287"/>
      <point x="109" y="236" type="curve" smooth="yes"/>
      <point x="109" y="-27" type="line" smooth="yes"/>
    </contour>
    <contour>
      <point x="205" y="7"/>
      <point x="254" y="-11"/>
      <point x="303" y="-11" type="curve" smooth="yes"/>
      <point x="411" y="-11"/>
      <point x="492" y="78"/>
      <point x="492" y="219" type="curve" smooth="yes"/>
      <point x="492" y="361"/>
      <point x="414" y="448"/>
      <point x="317" y="448" type="curve" smooth="yes"/>
      <point x="262" y="448"/>
      <point x="208" y="420"/>
      <point x="160" y="358" type="curve"/>
      <point x="141" y="358" type="line"/>
      <point x="149" y="315" type="line"/>
      <point x="217" y="380"/>
      <point x="263" y="397"/>
      <point x="297" y="397" type="curve" smooth="yes"/>
      <point x="365" y="397"/>
      <point x="414" y="330"/>
      <point x="414" y="211" type="curve" smooth="yes"/>
      <point x="414" y="92"/>
      <point x="356" y="38"/>
      <point x="287" y="38" type="curve" smooth="yes"/>
      <point x="241" y="38"/>
      <point x="197" y="63"/>
      <point x="149" y="124" type="curve"/>
      <point x="141" y="76" type="line"/>
      <point x="160" y="76" type="line"/>
    </contour>
  </outline>
</glyph>
<glyph name="q" format="2">
  <advance width="510"/>
  <unicode hex="0071"/>
  <anchor x="276" y="465" name="aboveLC"/>
  <anchor x="392" y="-230" name="belowLC"/>
  <outline>
    <contour>
      <point x="275" y="-220" type="line"/>
      <point x="510" y="-220" type="line"/>
      <point x="510" y="-188" type="line"/>
      <point x="406" y="-170" type="line"/>
      <point x="388" y="-170" type="line"/>
      <point x="275" y="-188" type="line"/>
    </contour>
    <contour>
      <point x="42" y="80"/>
      <point x="117" y="-11"/>
      <point x="230" y="-11" type="curve" smooth="yes"/>
      <point x="289" y="-11"/>
      <point x="334" y="14"/>
      <point x="372" y="76" type="curve"/>
      <point x="379" y="76" type="line"/>
      <point x="371" y="113" type="line"/>
      <point x="329" y="59"/>
      <point x="296" y="38"/>
      <point x="250" y="38" type="curve" smooth="yes"/>
      <point x="175" y="38"/>
      <point x="120" y="92"/>
      <point x="120" y="215" type="curve" smooth="yes"/>
      <point x="120" y="341"/>
      <point x="180" y="397"/>
      <point x="249" y="397" type="curve" smooth="yes"/>
      <point x="284" y="397"/>
      <point x="321" y="382"/>
      <point x="374" y="331" type="curve"/>
      <point x="383" y="369" type="line"/>
      <point x="373" y="369" type="line"/>
      <point x="328" y="429"/>
      <point x="282" y="448"/>
      <point x="234" y="448" type="curve" smooth="yes"/>
      <point x="125" y="448"/>
      <point x="42" y="353"/>
      <point x="42" y="213" type="curve" smooth="yes"/>
    </contour>
    <contour>
      <point x="362" y="-90"/>
      <point x="361" y="-156"/>
      <point x="359" y="-220" type="curve"/>
      <point x="436" y="-220" type="line"/>
      <point x="434" y="-156"/>
      <point x="433" y="-90"/>
      <point x="433" y="-25" type="curve" smooth="yes"/>
      <point x="433" y="314" type="line"/>
      <point x="436" y="438" type="line"/>
      <point x="422" y="448" type="line"/>
      <point x="359" y="381" type="line"/>
      <point x="359" y="79" type="line"/>
      <point x="362" y="66" type="line"/>
      <point x="362" y="-25" type="line" smooth="yes"/>
    </contour>
  </outline>
</glyph>
<glyph name="s" format="2">
  <advance width="398"/>
  <unicode hex="0073"/>
  <anchor x="207" y="465" name="aboveLC"/>
  <anchor x="196" y="0" name="baseLC"/>
  <anchor x="200" y="-20" name="belowLC"/>
  <outline>
    <contour>
      <point x="184" y="-11" type="curve" smooth="yes"/>
      <point x="301" y="-11"/>
      <point x="361" y="50"/>
      <point x="361" y="118" type="curve" smooth="yes"/>
      <point x="361" y="175"/>
      <point x="326" y="218"/>
      <point x="234" y="253" type="curve" smooth="yes"/>
      <point x="207" y="263" type="line" smooth="yes"/>
      <point x="144" y="286"/>
      <point x="121" y="301"/>
      <point x="121" y="343" type="curve" smooth="yes"/>
      <point x="121" y="381"/>
      <point x="150" y="406"/>
      <point x="207" y="406" type="curve" smooth="yes"/>
      <point x="241" y="406"/>
      <point x="272" y="394"/>
      <point x="301" y="371" type="curve"/>
      <point x="301" y="395" type="line"/>
      <point x="268" y="410" type="line"/>
      <point x="287" y="317" type="line"/>
      <point x="333" y="317" type="line"/>
      <point x="336" y="410" type="line"/>
      <point x="297" y="434"/>
      <point x="258" y="448"/>
      <point x="208" y="448" type="curve" smooth="yes"/>
      <point x="106" y="448"/>
      <point x="50" y="386"/>
      <point x="50" y="320" type="curve" smooth="yes"/>
      <point x="50" y="257"/>
      <point x="94" y="221"/>
      <point x="161" y="196" type="curve" smooth="yes"/>
      <point x="204" y="181" type="line" smooth="yes"/>
      <point x="262" y="160"/>
      <point x="289" y="139"/>
      <point x="289" y="100" type="curve" smooth="yes"/>
      <point x="289" y="57"/>
      <point x="256" y="29"/>
      <point x="185" y="29" type="curve" smooth="yes"/>
      <point x="139" y="29"/>
      <point x="104" y="42"/>
      <point x="72" y="67" type="curve"/>
      <point x="72" y="35" type="line"/>
      <point x="117" y="14" type="line"/>
      <point x="92" y="123" type="line"/>
      <point x="44" y="123" type="line"/>
      <point x="47" y="23" type="line"/>
      <point x="92" y="0"/>
      <point x="132" y="-11"/>
    </contour>
  </outline>
</glyph>
<glyph name="v" format="2">
  <advance width="463"/>
  <unicode hex="0076"/>
  <anchor x="241" y="465" name="aboveLC"/>
  <anchor x="233" y="-20" name="belowLC"/>
  <outline>
    <contour>
      <point x="218" y="-5" type="line"/>
      <point x="255" y="-5" type="line"/>
      <point x="423" y="436" type="line"/>
      <point x="373" y="436" type="line"/>
      <point x="242" y="64" type="line"/>
      <point x="262" y="64" type="line"/>
      <point x="119" y="436" type="line"/>
      <point x="32" y="436" type="line"/>
    </contour>
    <contour>
      <point x="0" y="401" type="line"/>
      <point x="90" y="385" type="line"/>
      <point x="108" y="385" type="line"/>
      <point x="220" y="401" type="line"/>
      <point x="220" y="436" type="line"/>
      <point x="0" y="436" type="line"/>
    </contour>
    <contour>
      <point x="279" y="401" type="line"/>
      <point x="371" y="385" type="line"/>
      <point x="390" y="385" type="line"/>
      <point x="454" y="401" type="line"/>
      <point x="454" y="436" type="line"/>
      <point x="279" y="436" type="line"/>
    </contour>
  </outline>
</glyph>
<glyph name="w" format="2">
  <advance width="701"/>
  <unicode hex="0077"/>
  <anchor x="359" y="465" name="aboveLC"/>
  <anchor x="356" y="-20" name="belowLC"/>
  <outline>
    <contour>
      <point x="201" y="-5" type="line"/>
      <point x="233" y="-5" type="line"/>
      <point x="365" y="347" type="line"/>
      <point x="346" y="347" type="line"/>
      <point x="476" y="-5" type="line"/>
      <point x="508" y="-5" type="line"/>
      <point x="658" y="436" type="line"/>
      <point x="607" y="436" type="line"/>
      <point x="497" y="79" type="line"/>
      <point x="516" y="80" type="line"/>
      <point x="380" y="436" type="line"/>
      <point x="353" y="436" type="line"/>
      <point x="222" y="79" type="line"/>
      <point x="241" y="79" type="line"/>
      <point x="119" y="436" type="line"/>
      <point x="36" y="436" type="line"/>
    </contour>
    <contour>
      <point x="0" y="401" type="line"/>
      <point x="90" y="385" type="line"/>
      <point x="108" y="385" type="line"/>
      <point x="207" y="401" type="line"/>
      <point x="207" y="436" type="line"/>
      <point x="0" y="436" type="line"/>
    </contour>
    <contour>
      <point x="266" y="401" type="line"/>
      <point x="363" y="385" type="line"/>
      <point x="381" y="385" type="line"/>
      <point x="469" y="401" type="line"/>
      <point x="469" y="436" type="line"/>
      <point x="266" y="436" type="line"/>
    </contour>
    <contour>
      <point x="523" y="401" type="line"/>
      <point x="609" y="385" type="line"/>
      <point x="627" y="385" type="line"/>
      <point x="691" y="401" type="line"/>
      <point x="691" y="436" type="line"/>
      <point x="523" y="436" type="line"/>
    </contour>
  </outline>
</glyph>
<glyph name="x" format="2">
  <advance width="482"/>
  <unicode hex="0078"/>
  <anchor x="246" y="465" name="aboveLC"/>
  <anchor x="232" y="-20" name="belowLC"/>
  <outline>
    <contour>
      <point x="9" y="0" type="line"/>
      <point x="194" y="0" type="line"/>
      <point x="194" y="32" type="line"/>
      <point x="107" y="47" type="line"/>
      <point x="88" y="47" type="line"/>
      <point x="9" y="32" type="line"/>
    </contour>
    <contour>
      <point x="32" y="0" type="line"/>
      <point x="88" y="0" type="line"/>
      <point x="256" y="216" type="line"/>
      <point x="225" y="237" type="line"/>
    </contour>
    <contour>
      <point x="251" y="0" type="line"/>
      <point x="472" y="0" type="line"/>
      <point x="472" y="32" type="line"/>
      <point x="371" y="50" type="line"/>
      <point x="352" y="50" type="line"/>
      <point x="251" y="32" type="line"/>
    </contour>
    <contour>
      <point x="253" y="203" type="line"/>
      <point x="445" y="436" type="line"/>
      <point x="387" y="436" type="line"/>
      <point x="223" y="227" type="line"/>
    </contour>
    <contour>
      <point x="349" y="0" type="line"/>
      <point x="434" y="0" type="line"/>
      <point x="259" y="249" type="line"/>
      <point x="129" y="436" type="line"/>
      <point x="48" y="436" type="line"/>
      <point x="213" y="195" type="line"/>
    </contour>
    <contour>
      <point x="15" y="401" type="line"/>
      <point x="111" y="385" type="line"/>
      <point x="130" y="385" type="line"/>
      <point x="218" y="401" type="line"/>
      <point x="218" y="436" type="line"/>
      <point x="15" y="436" type="line"/>
    </contour>
    <contour>
      <point x="288" y="401" type="line"/>
      <point x="365" y="386" type="line"/>
      <point x="384" y="386" type="line"/>
      <point x="461" y="401" type="line"/>
      <point x="461" y="436" type="line"/>
      <point x="288" y="436" type="line"/>
    </contour>
  </outline>
</glyph>
<glyph name="y" format="2">
  <advance width="470"/>
  <unicode hex="0079"/>
  <anchor x="248" y="465" name="aboveLC"/>
  <anchor x="113" y="-234" name="belowLC"/>
  <outline>
    <contour>
      <point x="83" y="-230" type="curve" smooth="yes"/>
      <point x="159" y="-230"/>
      <point x="210" y="-160"/>
      <point x="273" y="5" type="curve" smooth="yes"/>
      <point x="437" y="436" type="line"/>
      <point x="387" y="436" type="line"/>
      <point x="245" y="45" type="line"/>
      <point x="217" y="-34" type="line" smooth="yes"/>
      <point x="194" y="-99"/>
      <point x="157" y="-162"/>
      <point x="95" y="-193" type="curve"/>
      <point x="120" y="-213" type="line"/>
      <point x="156" y="-193" type="line"/>
      <point x="127" y="-164" type="line" smooth="yes"/>
      <point x="103" y="-139"/>
      <point x="84" y="-130"/>
      <point x="60" y="-130" type="curve" smooth="yes"/>
      <point x="33" y="-130"/>
      <point x="6" y="-143"/>
      <point x="0" y="-169" type="curve"/>
      <point x="0" y="-205"/>
      <point x="38" y="-230"/>
    </contour>
    <contour>
      <point x="230" y="-47" type="line"/>
      <point x="268" y="44" type="line"/>
      <point x="262" y="62" type="line"/>
      <point x="124" y="436" type="line"/>
      <point x="38" y="436" type="line"/>
    </contour>
    <contour>
      <point x="3" y="403" type="line"/>
      <point x="93" y="390" type="line"/>
      <point x="112" y="390" type="line"/>
      <point x="222" y="402" type="line"/>
      <point x="222" y="436" type="line"/>
      <point x="3" y="436" type="line"/>
    </contour>
    <contour>
      <point x="289" y="403" type="line"/>
      <point x="387" y="390" type="line"/>
      <point x="405" y="390" type="line"/>
      <point x="470" y="403" type="line"/>
      <point x="470" y="436" type="line"/>
      <point x="289" y="436" type="line"/>
    </contour>
  </outline>
</glyph>
<glyph name="braceleft" format="2">
  <advance width="316"/>
  <unicode hex="007B"/>
  <outline>
    <contour>
      <point x="36" y="237" type="line"/>
      <point x="114" y="228"/>
      <point x="147" y="198"/>
      <point x="147" y="152" type="curve" smooth="yes"/>
      <point x="147" y="103"/>
      <point x="109" y="41"/>
      <point x="109" y="-34" type="curve" smooth="yes"/>
      <point x="109" y="-107"/>
      <point x="160" y="-146"/>
      <point x="247" y="-146" type="curve" smooth="yes"/>
      <point x="288" y="-146" type="line"/>
      <point x="288" y="-110" type="line"/>
      <point x="264" y="-107" type="line" smooth="yes"/>
      <point x="199" y="-100"/>
      <point x="173" y="-85"/>
      <point x="173" y="-31" type="curve" smooth="yes"/>
      <point x="173" y="39"/>
      <point x="193" y="106"/>
      <point x="193" y="143" type="curve" smooth="yes"/>
      <point x="193" y="213"/>
      <point x="156" y="258"/>
      <point x="69" y="260" type="curve"/>
      <point x="69" y="251" type="line"/>
      <point x="156" y="253"/>
      <point x="193" y="298"/>
      <point x="193" y="368" type="curve" smooth="yes"/>
      <point x="193" y="404"/>
      <point x="173" y="471"/>
      <point x="173" y="542" type="curve" smooth="yes"/>
      <point x="173" y="597"/>
      <point x="199" y="611"/>
      <point x="264" y="619" type="curve" smooth="yes"/>
      <point x="288" y="621" type="line"/>
      <point x="288" y="657" type="line"/>
      <point x="247" y="657" type="line" smooth="yes"/>
      <point x="160" y="657"/>
      <point x="109" y="619"/>
      <point x="109" y="546" type="curve" smooth="yes"/>
      <point x="109" y="470"/>
      <point x="147" y="407"/>
      <point x="147" y="358" type="curve" smooth="yes"/>
      <point x="147" y="312"/>
      <point x="114" y="283"/>
      <point x="36" y="274" type="curve"/>
    </contour>
  </outline>
</glyph>
<glyph name="asciitilde" format="2">
  <advance width="487"/>
  <unicode hex="007E"/>
  <outline>
    <contour>
      <point x="261" y="336" type="curve" smooth="yes"/>
      <point x="226" y="371"/>
      <point x="194" y="387"/>
      <point x="155" y="387" type="curve" smooth="yes"/>
      <point x="87" y="387"/>
      <point x="51" y="342"/>
      <point x="46" y="259" type="curve"/>
      <point x="91" y="252" type="line"/>
      <point x="99" y="316"/>
      <point x="124" y="335"/>
      <point x="149" y="335" type="curve" smooth="yes"/>
      <point x="174" y="335"/>
      <point x="197" y="327"/>
      <point x="227" y="298" type="curve" smooth="yes"/>
      <point x="262" y="263"/>
      <point x="294" y="247"/>
      <point x="333" y="247" type="curve" smooth="yes"/>
      <point x="401" y="247"/>
      <point x="437" y="292"/>
      <point x="442" y="375" type="curve"/>
      <point x="397" y="382" type="line"/>
      <point x="389" y="318"/>
      <point x="364" y="299"/>
      <point x="338" y="299" type="curve" smooth="yes"/>
      <point x="313" y="299"/>
      <point x="289" y="308"/>
    </contour>
  </outline>
</glyph>
<glyph name="exclamdown" format="2">
  <advance width="263"/>
  <unicode hex="00A1"/>
  <outline>
    <contour>
      <point x="131" y="448" type="curve" smooth="yes"/>
      <point x="99" y="448"/>
      <point x="73" y="422"/>
      <point x="73" y="391" type="curve" smooth="yes"/>
      <point x="73" y="359"/>
      <point x="99" y="332"/>
      <point x="131" y="332" type="curve" smooth="yes"/>
      <point x="163" y="332"/>
      <point x="189" y="359"/>
      <point x="189" y="391" type="curve" smooth="yes"/>
      <point x="189" y="422"/>
      <point x="163" y="448"/>
    </contour>
    <contour>
      <point x="131" y="-193" type="curve" smooth="yes"/>
      <point x="162" y="-193"/>
      <point x="182" y="-176"/>
      <point x="182" y="-137" type="curve" smooth="yes"/>
      <point x="182" y="-103"/>
      <point x="172" y="-15"/>
      <point x="160" y="113" type="curve" smooth="yes"/>
      <point x="148" y="241" type="line"/>
      <point x="115" y="241" type="line"/>
      <point x="103" y="113" type="line" smooth="yes"/>
      <point x="91" y="-15"/>
      <point x="80" y="-103"/>
      <point x="80" y="-137" type="curve" smooth="yes"/>
      <point x="80" y="-176"/>
      <point x="100" y="-193"/>
    </contour>
  </outline>
</glyph>
<glyph name="yen" format="2">
  <advance width="457"/>
  <unicode hex="00A5"/>
  <outline>
    <contour>
      <point x="46" y="136" type="line"/>
      <point x="418" y="136" type="line"/>
      <point x="418" y="182" type="line"/>
      <point x="46" y="182" type="line"/>
    </contour>
    <contour>
      <point x="46" y="248" type="line"/>
      <point x="418" y="248" type="line"/>
      <point x="418" y="294" type="line"/>
      <point x="46" y="294" type="line"/>
    </contour>
    <contour>
      <point x="220" y="48" type="line"/>
      <point x="96" y="35" type="line"/>
      <point x="96" y="0" type="line"/>
      <point x="362" y="0" type="line"/>
      <point x="362" y="35" type="line"/>
      <point x="238" y="48" type="line"/>
    </contour>
    <contour>
      <point x="95" y="546" type="line"/>
      <point x="103" y="546" type="line"/>
      <point x="210" y="560" type="line"/>
      <point x="210" y="595" type="line"/>
      <point x="-10" y="595" type="line"/>
      <point x="-10" y="560" type="line"/>
    </contour>
    <contour>
      <point x="384" y="546" type="line"/>
      <point x="388" y="546" type="line"/>
      <point x="468" y="560" type="line"/>
      <point x="468" y="595" type="line"/>
      <point x="291" y="595" type="line"/>
      <point x="291" y="560" type="line"/>
    </contour>
    <contour>
      <point x="194" y="176" type="line" smooth="yes"/>
      <point x="194" y="116"/>
      <point x="192" y="63"/>
      <point x="191" y="0" type="curve"/>
      <point x="266" y="0" type="line"/>
      <point x="264" y="65"/>
      <point x="264" y="117"/>
      <point x="264" y="176" type="curve" smooth="yes"/>
      <point x="264" y="286" type="line"/>
      <point x="194" y="286" type="line"/>
    </contour>
    <contour>
      <point x="252" y="219" type="line"/>
      <point x="424" y="595" type="line"/>
      <point x="379" y="595" type="line"/>
      <point x="240" y="286" type="line"/>
      <point x="253" y="286" type="line"/>
      <point x="120" y="595" type="line"/>
      <point x="32" y="595" type="line"/>
      <point x="208" y="219" type="line"/>
    </contour>
  </outline>
</glyph>
<glyph name="brokenbar" format="2">
  <advance width="230"/>
  <unicode hex="00A6"/>
  <outline>
    <contour>
      <point x="89" y="-230" type="line"/>
      <point x="140" y="-230" type="line"/>
      <point x="140" y="184" type="line"/>
      <point x="89" y="184" type="line"/>
    </contour>
    <contour>
      <point x="140" y="294" type="line"/>
      <point x="140" y="690" type="line"/>
      <point x="89" y="690" type="line"/>
      <point x="89" y="294" type="line"/>
    </contour>
  </outline>
</glyph>
<glyph name="copyright" format="2">
  <advance width="695"/>
  <unicode hex="00A9"/>
  <outline>
    <contour>
      <point x="73" y="310" type="curve" smooth="yes"/>
      <point x="73" y="487"/>
      <point x="192" y="593"/>
      <point x="347" y="593" type="curve" smooth="yes"/>
      <point x="503" y="593"/>
      <point x="621" y="486"/>
      <point x="621" y="310" type="curve" smooth="yes"/>
      <point x="621" y="133"/>
      <point x="503" y="23"/>
      <point x="347" y="23" type="curve" smooth="yes"/>
      <point x="192" y="23"/>
      <point x="73" y="132"/>
    </contour>
    <contour>
      <point x="27" y="310" type="curve" smooth="yes"/>
      <point x="27" y="109"/>
      <point x="169" y="-13"/>
      <point x="347" y="-13" type="curve" smooth="yes"/>
      <point x="526" y="-13"/>
      <point x="667" y="109"/>
      <point x="667" y="310" type="curve" smooth="yes"/>
      <point x="667" y="510"/>
      <point x="526" y="630"/>
      <point x="347" y="630" type="curve" smooth="yes"/>
      <point x="169" y="630"/>
      <point x="27" y="510"/>
    </contour>
    <contour>
      <point x="368" y="161" type="curve" smooth="yes"/>
      <point x="296" y="161"/>
      <point x="247" y="213"/>
      <point x="247" y="310" type="curve" smooth="yes"/>
      <point x="247" y="409"/>
      <point x="301" y="461"/>
      <point x="368" y="461" type="curve" smooth="yes"/>
      <point x="393" y="461"/>
      <point x="425" y="453"/>
      <point x="455" y="428" type="curve"/>
      <point x="414" y="472" type="line"/>
      <point x="428" y="384" type="line"/>
      <point x="468" y="384" type="line"/>
      <point x="466" y="471" type="line"/>
      <point x="430" y="492"/>
      <point x="401" y="497"/>
      <point x="361" y="497" type="curve" smooth="yes"/>
      <point x="259" y="497"/>
      <point x="183" y="417"/>
      <point x="183" y="310" type="curve" smooth="yes"/>
      <point x="183" y="201"/>
      <point x="255" y="124"/>
      <point x="362" y="124" type="curve" smooth="yes"/>
      <point x="401" y="124"/>
      <point x="437" y="131"/>
      <point x="471" y="149" type="curve"/>
      <point x="473" y="236" type="line"/>
      <point x="433" y="236" type="line"/>
      <point x="419" y="148" type="line"/>
      <point x="460" y="192" type="line"/>
      <point x="431" y="167"/>
      <point x="390" y="161"/>
    </contour>
  </outline>
</glyph>
<glyph name="ordfeminine" format="2">
  <advance width="322"/>
  <unicode hex="00AA"/>
  <outline>
    <contour>
      <point x="260" y="449" type="curve" smooth="yes"/>
      <point x="260" y="581" type="line" smooth="yes"/>
      <point x="260" y="659"/>
      <point x="229" y="690"/>
      <point x="161" y="690" type="curve" smooth="yes"/>
      <point x="91" y="690"/>
      <point x="44" y="657"/>
      <point x="34" y="610" type="curve"/>
      <point x="36" y="593"/>
      <point x="47" y="583"/>
      <point x="66" y="583" type="curve" smooth="yes"/>
      <point x="84" y="583"/>
      <point x="95" y="597"/>
      <point x="103" y="622" type="curve" smooth="yes"/>
      <point x="115" y="670" type="line"/>
      <point x="84" y="651" type="line"/>
      <point x="108" y="659"/>
      <point x="126" y="661"/>
      <point x="141" y="661" type="curve" smooth="yes"/>
      <point x="184" y="661"/>
      <point x="199" y="645"/>
      <point x="199" y="589" type="curve" smooth="yes"/>
      <point x="199" y="451" type="line" smooth="yes"/>
      <point x="199" y="411"/>
      <point x="219" y="385"/>
      <point x="260" y="385" type="curve" smooth="yes"/>
      <point x="285" y="385"/>
      <point x="302" y="394"/>
      <point x="316" y="423" type="curve"/>
      <point x="303" y="435" type="line"/>
      <point x="294" y="425"/>
      <point x="287" y="421"/>
      <point x="278" y="421" type="curve" smooth="yes"/>
      <point x="265" y="421"/>
      <point x="260" y="430"/>
    </contour>
    <contour>
      <point x="89" y="471" type="curve" smooth="yes"/>
      <point x="89" y="494"/>
      <point x="100" y="517"/>
      <point x="147" y="533" type="curve" smooth="yes"/>
      <point x="172" y="541"/>
      <point x="201" y="550"/>
      <point x="230" y="557" type="curve"/>
      <point x="230" y="580" type="line"/>
      <point x="199" y="573"/>
      <point x="162" y="563"/>
      <point x="132" y="554" type="curve" smooth="yes"/>
      <point x="46" y="529"/>
      <point x="25" y="497"/>
      <point x="25" y="460" type="curve" smooth="yes"/>
      <point x="25" y="411"/>
      <point x="62" y="383"/>
      <point x="108" y="383" type="curve" smooth="yes"/>
      <point x="148" y="383"/>
      <point x="169" y="402"/>
      <point x="204" y="436" type="curve" smooth="yes"/>
      <point x="224" y="458" type="line"/>
      <point x="216" y="468" type="line"/>
      <point x="202" y="459" type="line" smooth="yes"/>
      <point x="166" y="435"/>
      <point x="155" y="426"/>
      <point x="136" y="426" type="curve" smooth="yes"/>
      <point x="112" y="426"/>
      <point x="89" y="439"/>
    </contour>
  </outline>
</glyph>
<glyph name="guillemotleft" format="2">
  <advance width="444"/>
  <unicode hex="00AB"/>
  <outline>
    <contour>
      <point x="214" y="46" type="line"/>
      <point x="236" y="71" type="line"/>
      <point x="83" y="250" type="line"/>
      <point x="83" y="214" type="line"/>
      <point x="236" y="392" type="line"/>
      <point x="214" y="417" type="line"/>
      <point x="27" y="256" type="line"/>
      <point x="27" y="207" type="line"/>
    </contour>
    <contour>
      <point x="399" y="46" type="line"/>
      <point x="421" y="71" type="line"/>
      <point x="268" y="250" type="line"/>
      <point x="268" y="214" type="line"/>
      <point x="421" y="392" type="line"/>
      <point x="399" y="417" type="line"/>
      <point x="212" y="256" type="line"/>
      <point x="212" y="207" type="line"/>
    </contour>
  </outline>
</glyph>
<glyph name="logicalnot" format="2">
  <advance width="487"/>
  <unicode hex="00AC"/>
  <outline>
    <contour>
      <point x="22" y="316" type="line"/>
      <point x="416" y="316" type="line"/>
      <point x="401" y="334" type="line"/>
      <point x="401" y="147" type="line"/>
      <point x="456" y="147" type="line"/>
      <point x="456" y="368" type="line"/>
      <point x="22" y="368" type="line"/>
    </contour>
  </outline>
</glyph>
<glyph name="registered" format="2">
  <advance width="421"/>
  <unicode hex="00AE"/>
  <outline>
    <contour>
      <point x="58" y="474" type="curve" smooth="yes"/>
      <point x="58" y="568"/>
      <point x="127" y="627"/>
      <point x="210" y="627" type="curve" smooth="yes"/>
      <point x="293" y="627"/>
      <point x="362" y="568"/>
      <point x="362" y="474" type="curve" smooth="yes"/>
      <point x="362" y="380"/>
      <point x="293" y="320"/>
      <point x="210" y="320" type="curve" smooth="yes"/>
      <point x="127" y="320"/>
      <point x="58" y="380"/>
    </contour>
    <contour>
      <point x="152" y="385" type="line"/>
      <point x="191" y="385" type="line"/>
      <point x="191" y="570" type="line"/>
      <point x="152" y="570" type="line"/>
    </contour>
    <contour>
      <point x="166" y="403" type="line"/>
      <point x="126" y="399" type="line"/>
      <point x="126" y="385" type="line"/>
      <point x="218" y="385" type="line"/>
      <point x="218" y="399" type="line"/>
      <point x="173" y="403" type="line"/>
    </contour>
    <contour>
      <point x="166" y="551" type="line"/>
      <point x="172" y="551" type="line"/>
      <point x="172" y="570" type="line"/>
      <point x="126" y="570" type="line"/>
      <point x="126" y="555" type="line"/>
    </contour>
    <contour>
      <point x="27" y="474" type="curve" smooth="yes"/>
      <point x="27" y="361"/>
      <point x="109" y="292"/>
      <point x="210" y="292" type="curve" smooth="yes"/>
      <point x="310" y="292"/>
      <point x="393" y="361"/>
      <point x="393" y="474" type="curve" smooth="yes"/>
      <point x="393" y="587"/>
      <point x="308" y="655"/>
      <point x="210" y="655" type="curve" smooth="yes"/>
      <point x="113" y="655"/>
      <point x="27" y="587"/>
    </contour>
    <contour>
      <point x="309" y="399" type="line"/>
      <point x="265" y="403" type="line"/>
      <point x="288" y="391" type="line"/>
      <point x="278" y="439" type="line" smooth="yes"/>
      <point x="273" y="465"/>
      <point x="248" y="477"/>
      <point x="215" y="477" type="curve"/>
      <point x="200" y="471" type="line"/>
      <point x="262" y="471"/>
      <point x="282" y="498"/>
      <point x="282" y="523" type="curve" smooth="yes"/>
      <point x="282" y="551"/>
      <point x="256" y="570"/>
      <point x="212" y="570" type="curve" smooth="yes"/>
      <point x="172" y="570" type="line"/>
      <point x="172" y="554" type="line"/>
      <point x="204" y="554" type="line" smooth="yes"/>
      <point x="229" y="554"/>
      <point x="241" y="542"/>
      <point x="241" y="519" type="curve" smooth="yes"/>
      <point x="241" y="499"/>
      <point x="230" y="483"/>
      <point x="204" y="483" type="curve" smooth="yes"/>
      <point x="172" y="483" type="line"/>
      <point x="172" y="467" type="line"/>
      <point x="205" y="467" type="line" smooth="yes"/>
      <point x="222" y="467"/>
      <point x="234" y="460"/>
      <point x="237" y="445" type="curve" smooth="yes"/>
      <point x="245" y="405" type="line" smooth="yes"/>
      <point x="249" y="386"/>
      <point x="258" y="381"/>
      <point x="281" y="381" type="curve" smooth="yes"/>
      <point x="291" y="381"/>
      <point x="297" y="382"/>
      <point x="309" y="385" type="curve"/>
    </contour>
  </outline>
</glyph>
<glyph name="degree" format="2">
  <advance width="301"/>
  <unicode hex="00B0"/>
  <outline>
    <contour>
      <point x="150" y="426" type="curve" smooth="yes"/>
      <point x="106" y="426"/>
      <point x="72" y="463"/>
      <point x="72" y="511" type="curve" smooth="yes"/>
      <point x="72" y="559"/>
      <point x="106" y="598"/>
      <point x="150" y="598" type="curve" smooth="yes"/>
      <point x="195" y="598"/>
      <point x="229" y="559"/>
      <point x="229" y="511" type="curve" smooth="yes"/>
      <point x="229" y="463"/>
      <point x="195" y="426"/>
    </contour>
    <contour>
      <point x="150" y="394" type="curve" smooth="yes"/>
      <point x="214" y="394"/>
      <point x="267" y="439"/>
      <point x="267" y="511" type="curve" smooth="yes"/>
      <point x="267" y="583"/>
      <point x="214" y="630"/>
      <point x="150" y="630" type="curve" smooth="yes"/>
      <point x="87" y="630"/>
      <point x="34" y="583"/>
      <point x="34" y="511" type="curve" smooth="yes"/>
      <point x="34" y="439"/>
      <point x="87" y="394"/>
    </contour>
  </outline>
</glyph>
<glyph name="three.sups" format="2">
  <advance width="340"/>
  <unicode hex="00B3"/>
  <outline>
    <contour>
      <point x="118" y="601" type="line"/>
      <point x="118" y="564" type="line"/>
      <point x="147" y="564" type="line" smooth="yes"/>
      <point x="207" y="564"/>
      <point x="232" y="537"/>
      <point x="232" y="492" type="curve" smooth="yes"/>
      <point x="232" y="443"/>
      <point x="202" y="414"/>
      <point x="148" y="414" type="curve" smooth="yes"/>
      <point x="131" y="414"/>
      <point x="115" y="416"/>
      <point x="96" y="423" type="curve"/>
      <point x="120" y="398" type="line"/>
      <point x="109" y="450" type="line" smooth="yes"/>
      <point x="103" y="484"/>
      <point x="90" y="494"/>
      <point x="73" y="494" type="curve" smooth="yes"/>
      <point x="60" y="494"/>
      <point x="48" y="488"/>
      <point x="42" y="470" type="curve"/>
      <point x="51" y="414"/>
      <point x="93" y="383"/>
      <point x="164" y="383" type="curve" smooth="yes"/>
      <point x="231" y="383"/>
      <point x="298" y="413"/>
      <point x="298" y="489" type="curve" smooth="yes"/>
      <point x="298" y="552"/>
      <point x="253" y="587"/>
      <point x="176" y="587" type="curve"/>
      <point x="183" y="580" type="line"/>
      <point x="238" y="580"/>
      <point x="281" y="621"/>
      <point x="281" y="675" type="curve" smooth="yes"/>
      <point x="281" y="729"/>
      <point x="235" y="765"/>
      <point x="168" y="765" type="curve" smooth="yes"/>
      <point x="110" y="765"/>
      <point x="62" y="738"/>
      <point x="54" y="680" type="curve"/>
      <point x="60" y="667"/>
      <point x="72" y="661"/>
      <point x="85" y="661" type="curve" smooth="yes"/>
      <point x="102" y="661"/>
      <point x="116" y="672"/>
      <point x="121" y="699" type="curve" smooth="yes"/>
      <point x="130" y="747" type="line"/>
      <point x="103" y="726" type="line"/>
      <point x="124" y="732"/>
      <point x="138" y="734"/>
      <point x="150" y="734" type="curve" smooth="yes"/>
      <point x="192" y="734"/>
      <point x="218" y="711"/>
      <point x="218" y="667" type="curve" smooth="yes"/>
      <point x="218" y="624"/>
      <point x="193" y="601"/>
      <point x="142" y="601" type="curve" smooth="yes"/>
    </contour>
  </outline>
</glyph>
<glyph name="cedilla" format="2">
  <advance width="368"/>
  <unicode hex="00B8"/>
  <anchor x="158" y="0" name="_baseLC"/>
  <outline>
    <contour>
      <point x="135" y="-79" type="line"/>
      <point x="180" y="-85"/>
      <point x="201" y="-98"/>
      <point x="201" y="-126" type="curve" smooth="yes"/>
      <point x="201" y="-152"/>
      <point x="184" y="-169"/>
      <point x="148" y="-169" type="curve" smooth="yes"/>
      <point x="131" y="-169"/>
      <point x="118" y="-168"/>
      <point x="103" y="-166" type="curve"/>
      <point x="97" y="-194" type="line"/>
      <point x="109" y="-197"/>
      <point x="128" y="-202"/>
      <point x="154" y="-202" type="curve" smooth="yes"/>
      <point x="221" y="-202"/>
      <point x="256" y="-171"/>
      <point x="256" y="-128" type="curve" smooth="yes"/>
      <point x="256" y="-78"/>
      <point x="207" y="-54"/>
      <point x="152" y="-51" type="curve"/>
      <point x="171" y="-70" type="line"/>
      <point x="180" y="2" type="line"/>
      <point x="147" y="2" type="line"/>
    </contour>
  </outline>
</glyph>
<glyph name="one.sups" format="2">
  <advance width="340"/>
  <unicode hex="00B9"/>
  <outline>
    <contour>
      <point x="72" y="733" type="line"/>
      <point x="72" y="700" type="line"/>
      <point x="144" y="705" type="line"/>
      <point x="144" y="391" type="line"/>
      <point x="207" y="391" type="line"/>
      <point x="207" y="757" type="line"/>
      <point x="199" y="762" type="line"/>
    </contour>
    <contour>
      <point x="202" y="434" type="line"/>
      <point x="148" y="434" type="line"/>
      <point x="60" y="418" type="line"/>
      <point x="60" y="391" type="line"/>
      <point x="288" y="391" type="line"/>
      <point x="288" y="418" type="line"/>
    </contour>
  </outline>
</glyph>
<glyph name="ordmasculine" format="2">
  <advance width="346"/>
  <unicode hex="00BA"/>
  <outline>
    <contour>
      <point x="173" y="657" type="curve" smooth="yes"/>
      <point x="227" y="657"/>
      <point x="257" y="618"/>
      <point x="257" y="536" type="curve" smooth="yes"/>
      <point x="257" y="452"/>
      <point x="227" y="414"/>
      <point x="173" y="414" type="curve" smooth="yes"/>
      <point x="118" y="414"/>
      <point x="88" y="452"/>
      <point x="88" y="536" type="curve" smooth="yes"/>
      <point x="88" y="618"/>
      <point x="118" y="657"/>
    </contour>
    <contour>
      <point x="173" y="690" type="curve" smooth="yes"/>
      <point x="98" y="690"/>
      <point x="25" y="632"/>
      <point x="25" y="536" type="curve" smooth="yes"/>
      <point x="25" y="438"/>
      <point x="97" y="382"/>
      <point x="173" y="382" type="curve" smooth="yes"/>
      <point x="249" y="382"/>
      <point x="320" y="438"/>
      <point x="320" y="536" type="curve" smooth="yes"/>
      <point x="320" y="632"/>
      <point x="247" y="690"/>
    </contour>
  </outline>
</glyph>
<glyph name="onequarter" format="2">
  <advance width="791"/>
  <unicode hex="00BC"/>
  <outline>
    <contour>
      <point x="218" y="-23" type="line"/>
      <point x="646" y="593" type="line"/>
      <point x="619" y="616" type="line"/>
      <point x="190" y="0" type="line"/>
    </contour>
    <contour>
      <point x="73" y="575" type="line"/>
      <point x="73" y="541" type="line"/>
      <point x="145" y="547" type="line"/>
      <point x="145" y="233" type="line"/>
      <point x="208" y="233" type="line"/>
      <point x="208" y="598" type="line"/>
      <point x="200" y="604" type="line"/>
    </contour>
    <contour>
      <point x="203" y="276" type="line"/>
      <point x="149" y="276" type="line"/>
      <point x="61" y="260" type="line"/>
      <point x="61" y="233" type="line"/>
      <point x="289" y="233" type="line"/>
      <point x="289" y="260" type="line"/>
    </contour>
    <contour>
      <point x="441" y="92" type="line"/>
      <point x="715" y="92" type="line"/>
      <point x="715" y="145" type="line"/>
      <point x="469" y="145" type="line"/>
      <point x="477" y="132" type="line"/>
      <point x="611" y="324" type="line"/>
      <point x="598" y="324" type="line"/>
      <point x="598" y="0" type="line"/>
      <point x="656" y="0" type="line"/>
      <point x="656" y="370" type="line"/>
      <point x="614" y="370" type="line"/>
      <point x="441" y="135" type="line"/>
    </contour>
  </outline>
</glyph>
<glyph name="threequarters" format="2">
  <advance width="791"/>
  <unicode hex="00BE"/>
  <outline>
    <contour>
      <point x="226" y="-23" type="line"/>
      <point x="655" y="593" type="line"/>
      <point x="627" y="616" type="line"/>
      <point x="198" y="0" type="line"/>
    </contour>
    <contour>
      <point x="149" y="443" type="line"/>
      <point x="149" y="406" type="line"/>
      <point x="177" y="406" type="line" smooth="yes"/>
      <point x="237" y="406"/>
      <point x="263" y="379"/>
      <point x="263" y="333" type="curve" smooth="yes"/>
      <point x="263" y="285"/>
      <point x="232" y="255"/>
      <point x="178" y="255" type="curve" smooth="yes"/>
      <point x="161" y="255"/>
      <point x="146" y="258"/>
      <point x="126" y="264" type="curve"/>
      <point x="150" y="240" type="line"/>
      <point x="139" y="292" type="line" smooth="yes"/>
      <point x="133" y="326"/>
      <point x="120" y="335"/>
      <point x="103" y="335" type="curve" smooth="yes"/>
      <point x="91" y="335"/>
      <point x="79" y="330"/>
      <point x="72" y="311" type="curve"/>
      <point x="81" y="256"/>
      <point x="124" y="225"/>
      <point x="195" y="225" type="curve" smooth="yes"/>
      <point x="262" y="225"/>
      <point x="328" y="254"/>
      <point x="328" y="331" type="curve" smooth="yes"/>
      <point x="328" y="393"/>
      <point x="284" y="429"/>
      <point x="207" y="429" type="curve"/>
      <point x="213" y="422" type="line"/>
      <point x="268" y="422"/>
      <point x="311" y="463"/>
      <point x="311" y="517" type="curve" smooth="yes"/>
      <point x="311" y="571"/>
      <point x="265" y="607"/>
      <point x="198" y="607" type="curve" smooth="yes"/>
      <point x="140" y="607"/>
      <point x="92" y="580"/>
      <point x="84" y="522" type="curve"/>
      <point x="91" y="509"/>
      <point x="103" y="503"/>
      <point x="115" y="503" type="curve" smooth="yes"/>
      <point x="132" y="503"/>
      <point x="147" y="514"/>
      <point x="151" y="540" type="curve" smooth="yes"/>
      <point x="161" y="589" type="line"/>
      <point x="134" y="568" type="line"/>
      <point x="154" y="574"/>
      <point x="169" y="575"/>
      <point x="181" y="575" type="curve" smooth="yes"/>
      <point x="222" y="575"/>
      <point x="248" y="552"/>
      <point x="248" y="509" type="curve" smooth="yes"/>
      <point x="248" y="466"/>
      <point x="223" y="443"/>
      <point x="172" y="443" type="curve" smooth="yes"/>
    </contour>
    <contour>
      <point x="449" y="92" type="line"/>
      <point x="724" y="92" type="line"/>
      <point x="724" y="145" type="line"/>
      <point x="477" y="145" type="line"/>
      <point x="485" y="132" type="line"/>
      <point x="620" y="324" type="line"/>
      <point x="607" y="324" type="line"/>
      <point x="607" y="0" type="line"/>
      <point x="665" y="0" type="line"/>
      <point x="665" y="370" type="line"/>
      <point x="622" y="370" type="line"/>
      <point x="449" y="135" type="line"/>
    </contour>
  </outline>
</glyph>
<glyph name="Aacute" format="2">
  <advance width="609"/>
  <unicode hex="00C1"/>
  <anchor x="304" y="806" name="aboveUC"/>
  <anchor x="287" y="-20" name="belowLC"/>
  <anchor x="502" y="0" name="ogonek"/>
  <outline>
    <contour>
      <point x="4" y="0" type="line"/>
      <point x="216" y="0" type="line"/>
      <point x="216" y="36" type="line"/>
      <point x="115" y="50" type="line"/>
      <point x="96" y="50" type="line"/>
      <point x="4" y="36" type="line"/>
    </contour>
    <contour>
      <point x="65" y="0" type="line"/>
      <point x="108" y="0" type="line"/>
      <point x="285" y="519" type="line"/>
      <point x="460" y="0" type="line"/>
      <point x="545" y="0" type="line"/>
      <point x="333" y="621" type="line"/>
      <point x="278" y="621" type="line"/>
    </contour>
    <contour>
      <point x="156" y="201" type="line"/>
      <point x="434" y="201" type="line"/>
      <point x="419" y="243" type="line"/>
      <point x="171" y="243" type="line"/>
    </contour>
    <contour>
      <point x="352" y="0" type="line"/>
      <point x="600" y="0" type="line"/>
      <point x="600" y="36" type="line"/>
      <point x="486" y="50" type="line"/>
      <point x="468" y="50" type="line"/>
      <point x="352" y="36" type="line"/>
    </contour>
    <contour>
      <point x="243" y="686" type="curve"/>
      <point x="260" y="664" type="line"/>
      <point x="298" y="683"/>
      <point x="336" y="704"/>
      <point x="374" y="725" type="curve" smooth="yes"/>
      <point x="408" y="745"/>
      <point x="420" y="759"/>
      <point x="420" y="776" type="curve" smooth="yes"/>
      <point x="420" y="794"/>
      <point x="404" y="806"/>
      <point x="386" y="806" type="curve" smooth="yes"/>
      <point x="370" y="806"/>
      <point x="355" y="797"/>
      <point x="329" y="771" type="curve" smooth="yes"/>
      <point x="300" y="744"/>
      <point x="272" y="715"/>
    </contour>
  </outline>
</glyph>
<glyph name="Acircumflex" format="2">
  <advance width="609"/>
  <unicode hex="00C2"/>
  <anchor x="304" y="777" name="aboveUC"/>
  <anchor x="287" y="-20" name="belowLC"/>
  <anchor x="502" y="0" name="ogonek"/>
  <outline>
    <contour>
      <point x="4" y="0" type="line"/>
      <point x="216" y="0" type="line"/>
      <point x="216" y="36" type="line"/>
      <point x="115" y="50" type="line"/>
      <point x="96" y="50" type="line"/>
      <point x="4" y="36" type="line"/>
    </contour>
    <contour>
      <point x="65" y="0" type="line"/>
      <point x="108" y="0" type="line"/>
      <point x="285" y="519" type="line"/>
      <point x="460" y="0" type="line"/>
      <point x="545" y="0" type="line"/>
      <point x="333" y="621" type="line"/>
      <point x="278" y="621" type="line"/>
    </contour>
    <contour>
      <point x="156" y="201" type="line"/>
      <point x="434" y="201" type="line"/>
      <point x="419" y="243" type="line"/>
      <point x="171" y="243" type="line"/>
    </contour>
    <contour>
      <point x="352" y="0" type="line"/>
      <point x="600" y="0" type="line"/>
      <point x="600" y="36" type="line"/>
      <point x="486" y="50" type="line"/>
      <point x="468" y="50" type="line"/>
      <point x="352" y="36" type="line"/>
    </contour>
    <contour>
      <point x="319" y="768" type="line"/>
      <point x="289" y="768" type="line"/>
      <point x="170" y="664" type="line"/>
      <point x="187" y="642" type="line"/>
      <point x="343" y="731" type="line"/>
      <point x="265" y="731" type="line"/>
      <point x="421" y="642" type="line"/>
      <point x="438" y="664" type="line"/>
    </contour>
  </outline>
</glyph>
<glyph name="Atilde" format="2">
  <advance width="609"/>
  <unicode hex="00C3"/>
  <anchor x="304" y="803" name="aboveUC"/>
  <anchor x="287" y="-20" name="belowLC"/>
  <anchor x="502" y="0" name="ogonek"/>
  <outline>
    <contour>
      <point x="4" y="0" type="line"/>
      <point x="216" y="0" type="line"/>
      <point x="216" y="36" type="line"/>
      <point x="115" y="50" type="line"/>
      <point x="96" y="50" type="line"/>
      <point x="4" y="36" type="line"/>
    </contour>
    <contour>
      <point x="65" y="0" type="line"/>
      <point x="108" y="0" type="line"/>
      <point x="285" y="519" type="line"/>
      <point x="460" y="0" type="line"/>
      <point x="545" y="0" type="line"/>
      <point x="333" y="621" type="line"/>
      <point x="278" y="621" type="line"/>
    </contour>
    <contour>
      <point x="156" y="201" type="line"/>
      <point x="434" y="201" type="line"/>
      <point x="419" y="243" type="line"/>
      <point x="171" y="243" type="line"/>
    </contour>
    <contour>
      <point x="352" y="0" type="line"/>
      <point x="600" y="0" type="line"/>
      <point x="600" y="36" type="line"/>
      <point x="486" y="50" type="line"/>
      <point x="468" y="50" type="line"/>
      <point x="352" y="36" type="line"/>
    </contour>
    <contour>
      <point x="138" y="676" type="curve"/>
      <point x="165" y="667" type="line"/>
      <point x="180" y="713"/>
      <point x="198" y="742"/>
      <point x="229" y="742" type="curve" smooth="yes"/>
      <point x="256" y="742"/>
      <point x="276" y="716"/>
      <point x="299" y="697" type="curve" smooth="yes"/>
      <point x="319" y="680"/>
      <point x="340" y="666"/>
      <point x="374" y="666" type="curve" smooth="yes"/>
      <point x="431" y="666"/>
      <point x="458" y="713"/>
      <point x="470" y="783" type="curve"/>
      <point x="443" y="792" type="line"/>
      <point x="428" y="746"/>
      <point x="411" y="717"/>
      <point x="379" y="717" type="curve" smooth="yes"/>
      <point x="352" y="717"/>
      <point x="333" y="743"/>
      <point x="312" y="759" type="curve" smooth="yes"/>
      <point x="288" y="779"/>
      <point x="268" y="793"/>
      <point x="234" y="793" type="curve" smooth="yes"/>
      <point x="178" y="793"/>
      <point x="149" y="747"/>
    </contour>
  </outline>
</glyph>
<glyph name="Adieresis" format="2">
  <advance width="609"/>
  <unicode hex="00C4"/>
  <anchor x="304" y="794" name="aboveUC"/>
  <anchor x="287" y="-20" name="belowLC"/>
  <anchor x="502" y="0" name="ogonek"/>
  <outline>
    <contour>
      <point x="4" y="0" type="line"/>
      <point x="216" y="0" type="line"/>
      <point x="216" y="36" type="line"/>
      <point x="115" y="50" type="line"/>
      <point x="96" y="50" type="line"/>
      <point x="4" y="36" type="line"/>
    </contour>
    <contour>
      <point x="65" y="0" type="line"/>
      <point x="108" y="0" type="line"/>
      <point x="285" y="519" type="line"/>
      <point x="460" y="0" type="line"/>
      <point x="545" y="0" type="line"/>
      <point x="333" y="621" type="line"/>
      <point x="278" y="621" type="line"/>
    </contour>
    <contour>
      <point x="156" y="201" type="line"/>
      <point x="434" y="201" type="line"/>
      <point x="419" y="243" type="line"/>
      <point x="171" y="243" type="line"/>
    </contour>
    <contour>
      <point x="352" y="0" type="line"/>
      <point x="600" y="0" type="line"/>
      <point x="600" y="36" type="line"/>
      <point x="486" y="50" type="line"/>
      <point x="468" y="50" type="line"/>
      <point x="352" y="36" type="line"/>
    </contour>
    <contour>
      <point x="202" y="686" type="curve" smooth="yes"/>
      <point x="230" y="686"/>
      <point x="253" y="707"/>
      <point x="253" y="736" type="curve" smooth="yes"/>
      <point x="253" y="764"/>
      <point x="230" y="785"/>
      <point x="202" y="785" type="curve" smooth="yes"/>
      <point x="173" y="785"/>
      <point x="149" y="764"/>
      <point x="149" y="736" type="curve" smooth="yes"/>
      <point x="149" y="707"/>
      <point x="173" y="686"/>
    </contour>
    <contour>
      <point x="405" y="686" type="curve" smooth="yes"/>
      <point x="434" y="686"/>
      <point x="458" y="707"/>
      <point x="458" y="736" type="curve" smooth="yes"/>
      <point x="458" y="764"/>
      <point x="434" y="785"/>
      <point x="405" y="785" type="curve" smooth="yes"/>
      <point x="377" y="785"/>
      <point x="354" y="764"/>
      <point x="354" y="736" type="curve" smooth="yes"/>
      <point x="354" y="707"/>
      <point x="377" y="686"/>
    </contour>
  </outline>
</glyph>
<glyph name="AE" format="2">
  <advance width="848"/>
  <unicode hex="00C6"/>
  <anchor x="555" y="635" name="aboveUC"/>
  <outline>
    <contour>
      <point x="4" y="0" type="line"/>
      <point x="216" y="0" type="line"/>
      <point x="216" y="36" type="line"/>
      <point x="124" y="50" type="line"/>
      <point x="105" y="50" type="line"/>
      <point x="4" y="36" type="line"/>
    </contour>
    <contour>
      <point x="56" y="0" type="line"/>
      <point x="108" y="0" type="line"/>
      <point x="442" y="616" type="line"/>
      <point x="391" y="616" type="line"/>
    </contour>
    <contour>
      <point x="206" y="229" type="line"/>
      <point x="462" y="229" type="line"/>
      <point x="462" y="271" type="line"/>
      <point x="229" y="271" type="line"/>
    </contour>
    <contour>
      <point x="297" y="579" type="line"/>
      <point x="392" y="565" type="line"/>
      <point x="462" y="565" type="line"/>
      <point x="462" y="616" type="line"/>
      <point x="297" y="616" type="line"/>
    </contour>
    <contour>
      <point x="340" y="0" type="line"/>
      <point x="462" y="0" type="line"/>
      <point x="462" y="50" type="line"/>
      <point x="453" y="50" type="line"/>
      <point x="340" y="36" type="line"/>
    </contour>
    <contour>
      <point x="421" y="0" type="curve"/>
      <point x="504" y="0" type="line"/>
      <point x="501" y="94"/>
      <point x="501" y="190"/>
      <point x="501" y="296" type="curve" smooth="yes"/>
      <point x="501" y="331" type="line" smooth="yes"/>
      <point x="501" y="427"/>
      <point x="501" y="523"/>
      <point x="504" y="616" type="curve"/>
      <point x="424" y="616" type="line"/>
      <point x="424" y="232" type="line" smooth="yes"/>
      <point x="424" y="148"/>
      <point x="423" y="72"/>
    </contour>
    <contour>
      <point x="462" y="293" type="line"/>
      <point x="671" y="293" type="line"/>
      <point x="671" y="335" type="line"/>
      <point x="462" y="335" type="line"/>
    </contour>
    <contour>
      <point x="655" y="206" type="line"/>
      <point x="697" y="206" type="line"/>
      <point x="697" y="424" type="line"/>
      <point x="655" y="424" type="line"/>
      <point x="642" y="326" type="line"/>
      <point x="642" y="308" type="line"/>
    </contour>
    <contour>
      <point x="462" y="570" type="line"/>
      <point x="725" y="570" type="line"/>
      <point x="746" y="452" type="line"/>
      <point x="797" y="452" type="line"/>
      <point x="791" y="616" type="line"/>
      <point x="462" y="616" type="line"/>
    </contour>
    <contour>
      <point x="462" y="0" type="line"/>
      <point x="809" y="0" type="line"/>
      <point x="816" y="163" type="line"/>
      <point x="764" y="163" type="line"/>
      <point x="744" y="46" type="line"/>
      <point x="462" y="46" type="line"/>
    </contour>
  </outline>
</glyph>
<glyph name="Egrave" format="2">
  <advance width="555"/>
  <unicode hex="00C8"/>
  <anchor x="277" y="806" name="aboveUC"/>
  <anchor x="323" y="-20" name="belowLC"/>
  <anchor x="443" y="0" name="ogonek"/>
  <outline>
    <contour>
      <point x="41" y="0" type="line"/>
      <point x="170" y="0" type="line"/>
      <point x="170" y="50" type="line"/>
      <point x="161" y="50" type="line"/>
      <point x="41" y="36" type="line"/>
    </contour>
    <contour>
      <point x="128" y="188"/>
      <point x="128" y="92"/>
      <point x="126" y="0" type="curve"/>
      <point x="214" y="0" type="line"/>
      <point x="211" y="94"/>
      <point x="211" y="190"/>
      <point x="211" y="296" type="curve" smooth="yes"/>
      <point x="211" y="331" type="line" smooth="yes"/>
      <point x="211" y="427"/>
      <point x="211" y="523"/>
      <point x="214" y="616" type="curve"/>
      <point x="126" y="616" type="line"/>
      <point x="128" y="521"/>
      <point x="128" y="425"/>
      <point x="128" y="331" type="curve" smooth="yes"/>
      <point x="128" y="285" type="line" smooth="yes"/>
    </contour>
    <contour>
      <point x="170" y="0" type="line"/>
      <point x="517" y="0" type="line"/>
      <point x="523" y="163" type="line"/>
      <point x="471" y="163" type="line"/>
      <point x="447" y="18" type="line"/>
      <point x="479" y="46" type="line"/>
      <point x="170" y="46" type="line"/>
    </contour>
    <contour>
      <point x="170" y="293" type="line"/>
      <point x="378" y="293" type="line"/>
      <point x="378" y="335" type="line"/>
      <point x="170" y="335" type="line"/>
    </contour>
    <contour>
      <point x="362" y="206" type="line"/>
      <point x="403" y="206" type="line"/>
      <point x="403" y="424" type="line"/>
      <point x="362" y="424" type="line"/>
      <point x="348" y="326" type="line"/>
      <point x="348" y="308" type="line"/>
    </contour>
    <contour>
      <point x="41" y="579" type="line"/>
      <point x="161" y="565" type="line"/>
      <point x="170" y="565" type="line"/>
      <point x="170" y="616" type="line"/>
      <point x="41" y="616" type="line"/>
    </contour>
    <contour>
      <point x="453" y="452" type="line"/>
      <point x="505" y="452" type="line"/>
      <point x="498" y="616" type="line"/>
      <point x="170" y="616" type="line"/>
      <point x="170" y="570" type="line"/>
      <point x="460" y="570" type="line"/>
      <point x="428" y="598" type="line"/>
    </contour>
    <contour>
      <point x="338" y="686" type="line"/>
      <point x="310" y="714"/>
      <point x="282" y="743"/>
      <point x="253" y="771" type="curve" smooth="yes"/>
      <point x="227" y="797"/>
      <point x="211" y="806"/>
      <point x="195" y="806" type="curve" smooth="yes"/>
      <point x="177" y="806"/>
      <point x="161" y="794"/>
      <point x="161" y="776" type="curve" smooth="yes"/>
      <point x="161" y="759"/>
      <point x="173" y="744"/>
      <point x="207" y="725" type="curve" smooth="yes"/>
      <point x="244" y="705"/>
      <point x="283" y="684"/>
      <point x="322" y="664" type="curve"/>
    </contour>
  </outline>
</glyph>
<glyph name="Iacute" format="2">
  <advance width="340"/>
  <unicode hex="00CD"/>
  <anchor x="188" y="806" name="aboveUC"/>
  <anchor x="170" y="-20" name="belowLC"/>
  <anchor x="206" y="0" name="ogonek"/>
  <outline>
    <contour>
      <point x="41" y="0" type="line"/>
      <point x="299" y="0" type="line"/>
      <point x="299" y="36" type="line"/>
      <point x="179" y="50" type="line"/>
      <point x="161" y="50" type="line"/>
      <point x="41" y="36" type="line"/>
    </contour>
    <contour>
      <point x="128" y="188"/>
      <point x="128" y="92"/>
      <point x="126" y="0" type="curve"/>
      <point x="214" y="0" type="line"/>
      <point x="211" y="94"/>
      <point x="211" y="190"/>
      <point x="211" y="285" type="curve" smooth="yes"/>
      <point x="211" y="331" type="line" smooth="yes"/>
      <point x="211" y="427"/>
      <point x="211" y="523"/>
      <point x="214" y="616" type="curve"/>
      <point x="126" y="616" type="line"/>
      <point x="128" y="521"/>
      <point x="128" y="425"/>
      <point x="128" y="331" type="curve" smooth="yes"/>
      <point x="128" y="285" type="line" smooth="yes"/>
    </contour>
    <contour>
      <point x="41" y="579" type="line"/>
      <point x="161" y="565" type="line"/>
      <point x="179" y="565" type="line"/>
      <point x="299" y="579" type="line"/>
      <point x="299" y="616" type="line"/>
      <point x="41" y="616" type="line"/>
    </contour>
    <contour>
      <point x="127" y="686" type="curve"/>
      <point x="144" y="664" type="line"/>
      <point x="182" y="683"/>
      <point x="220" y="704"/>
      <point x="258" y="725" type="curve" smooth="yes"/>
      <point x="292" y="745"/>
      <point x="304" y="759"/>
      <point x="304" y="776" type="curve" smooth="yes"/>
      <point x="304" y="794"/>
      <point x="288" y="806"/>
      <point x="270" y="806" type="curve" smooth="yes"/>
      <point x="254" y="806"/>
      <point x="239" y="797"/>
      <point x="213" y="771" type="curve" smooth="yes"/>
      <point x="184" y="744"/>
      <point x="156" y="715"/>
    </contour>
  </outline>
</glyph>
<glyph name="Icircumflex" format="2">
  <advance width="340"/>
  <unicode hex="00CE"/>
  <anchor x="170" y="795" name="aboveUC"/>
  <anchor x="170" y="-20" name="belowLC"/>
  <anchor x="206" y="0" name="ogonek"/>
  <outline>
    <contour>
      <point x="41" y="0" type="line"/>
      <point x="299" y="0" type="line"/>
      <point x="299" y="36" type="line"/>
      <point x="179" y="50" type="line"/>
      <point x="161" y="50" type="line"/>
      <point x="41" y="36" type="line"/>
    </contour>
    <contour>
      <point x="128" y="188"/>
      <point x="128" y="92"/>
      <point x="126" y="0" type="curve"/>
      <point x="214" y="0" type="line"/>
      <point x="211" y="94"/>
      <point x="211" y="190"/>
      <point x="211" y="285" type="curve" smooth="yes"/>
      <point x="211" y="331" type="line" smooth="yes"/>
      <point x="211" y="427"/>
      <point x="211" y="523"/>
      <point x="214" y="616" type="curve"/>
      <point x="126" y="616" type="line"/>
      <point x="128" y="521"/>
      <point x="128" y="425"/>
      <point x="128" y="331" type="curve" smooth="yes"/>
      <point x="128" y="285" type="line" smooth="yes"/>
    </contour>
    <contour>
      <point x="41" y="579" type="line"/>
      <point x="161" y="565" type="line"/>
      <point x="179" y="565" type="line"/>
      <point x="299" y="579" type="line"/>
      <point x="299" y="616" type="line"/>
      <point x="41" y="616" type="line"/>
    </contour>
    <contour>
      <point x="184" y="786" type="line"/>
      <point x="155" y="786" type="line"/>
      <point x="35" y="682" type="line"/>
      <point x="53" y="660" type="line"/>
      <point x="208" y="749" type="line"/>
      <point x="131" y="749" type="line"/>
      <point x="287" y="660" type="line"/>
      <point x="304" y="682" type="line"/>
    </contour>
  </outline>
</glyph>
<glyph name="Ntilde" format="2">
  <advance width="676"/>
  <unicode hex="00D1"/>
  <anchor x="346" y="793" name="aboveUC"/>
  <anchor x="345" y="-20" name="belowLC"/>
  <outline>
    <contour>
      <point x="36" y="0" type="line"/>
      <point x="257" y="0" type="line"/>
      <point x="257" y="36" type="line"/>
      <point x="151" y="50" type="line"/>
      <point x="133" y="50" type="line"/>
      <point x="36" y="36" type="line"/>
    </contour>
    <contour>
      <point x="115" y="0" type="line"/>
      <point x="161" y="0" type="line"/>
      <point x="161" y="595" type="line"/>
      <point x="115" y="595" type="line"/>
    </contour>
    <contour>
      <point x="418" y="579" type="line"/>
      <point x="529" y="565" type="line"/>
      <point x="547" y="565" type="line"/>
      <point x="639" y="579" type="line"/>
      <point x="639" y="616" type="line"/>
      <point x="418" y="616" type="line"/>
    </contour>
    <contour>
      <point x="531" y="-6" type="line"/>
      <point x="561" y="-6" type="line"/>
      <point x="561" y="616" type="line"/>
      <point x="515" y="616" type="line"/>
      <point x="515" y="154" type="line"/>
      <point x="179" y="616" type="line"/>
      <point x="41" y="616" type="line"/>
      <point x="41" y="579" type="line"/>
      <point x="106" y="571" type="line"/>
    </contour>
    <contour>
      <point x="181" y="667" type="curve"/>
      <point x="207" y="658" type="line"/>
      <point x="222" y="704"/>
      <point x="241" y="733"/>
      <point x="271" y="733" type="curve" smooth="yes"/>
      <point x="299" y="733"/>
      <point x="318" y="707"/>
      <point x="341" y="688" type="curve" smooth="yes"/>
      <point x="361" y="671"/>
      <point x="382" y="656"/>
      <point x="416" y="656" type="curve" smooth="yes"/>
      <point x="473" y="656"/>
      <point x="500" y="703"/>
      <point x="512" y="774" type="curve"/>
      <point x="485" y="782" type="line"/>
      <point x="471" y="736"/>
      <point x="453" y="708"/>
      <point x="422" y="708" type="curve" smooth="yes"/>
      <point x="394" y="708"/>
      <point x="375" y="734"/>
      <point x="355" y="750" type="curve" smooth="yes"/>
      <point x="331" y="770"/>
      <point x="310" y="784"/>
      <point x="276" y="784" type="curve" smooth="yes"/>
      <point x="220" y="784"/>
      <point x="192" y="737"/>
    </contour>
  </outline>
</glyph>
<glyph name="Ograve" format="2">
  <advance width="650"/>
  <unicode hex="00D2"/>
  <anchor x="324" y="806" name="aboveUC"/>
  <anchor x="324" y="-20" name="belowLC"/>
  <anchor x="464" y="605" name="hornLC"/>
  <anchor x="408" y="0" name="ogonek"/>
  <outline>
    <contour>
      <point x="325" y="-13" type="curve" smooth="yes"/>
      <point x="468" y="-13"/>
      <point x="606" y="106"/>
      <point x="606" y="308" type="curve" smooth="yes"/>
      <point x="606" y="517"/>
      <point x="467" y="630"/>
      <point x="325" y="630" type="curve" smooth="yes"/>
      <point x="184" y="630"/>
      <point x="44" y="509"/>
      <point x="44" y="308" type="curve" smooth="yes"/>
      <point x="44" y="98"/>
      <point x="183" y="-13"/>
    </contour>
    <contour>
      <point x="325" y="32" type="curve" smooth="yes"/>
      <point x="195" y="32"/>
      <point x="140" y="170"/>
      <point x="140" y="308" type="curve" smooth="yes"/>
      <point x="140" y="446"/>
      <point x="195" y="584"/>
      <point x="325" y="584" type="curve" smooth="yes"/>
      <point x="455" y="584"/>
      <point x="509" y="446"/>
      <point x="509" y="308" type="curve" smooth="yes"/>
      <point x="509" y="170"/>
      <point x="455" y="32"/>
    </contour>
    <contour>
      <point x="385" y="686" type="line"/>
      <point x="357" y="714"/>
      <point x="329" y="743"/>
      <point x="299" y="771" type="curve" smooth="yes"/>
      <point x="274" y="797"/>
      <point x="258" y="806"/>
      <point x="242" y="806" type="curve" smooth="yes"/>
      <point x="224" y="806"/>
      <point x="208" y="794"/>
      <point x="208" y="776" type="curve" smooth="yes"/>
      <point x="208" y="759"/>
      <point x="220" y="744"/>
      <point x="254" y="725" type="curve" smooth="yes"/>
      <point x="291" y="705"/>
      <point x="330" y="684"/>
      <point x="368" y="664" type="curve"/>
    </contour>
  </outline>
</glyph>
<glyph name="Oacute" format="2">
  <advance width="650"/>
  <unicode hex="00D3"/>
  <anchor x="344" y="806" name="aboveUC"/>
  <anchor x="324" y="-20" name="belowLC"/>
  <anchor x="464" y="605" name="hornLC"/>
  <anchor x="408" y="0" name="ogonek"/>
  <outline>
    <contour>
      <point x="325" y="-13" type="curve" smooth="yes"/>
      <point x="468" y="-13"/>
      <point x="606" y="106"/>
      <point x="606" y="308" type="curve" smooth="yes"/>
      <point x="606" y="517"/>
      <point x="467" y="630"/>
      <point x="325" y="630" type="curve" smooth="yes"/>
      <point x="184" y="630"/>
      <point x="44" y="509"/>
      <point x="44" y="308" type="curve" smooth="yes"/>
      <point x="44" y="98"/>
      <point x="183" y="-13"/>
    </contour>
    <contour>
      <point x="325" y="32" type="curve" smooth="yes"/>
      <point x="195" y="32"/>
      <point x="140" y="170"/>
      <point x="140" y="308" type="curve" smooth="yes"/>
      <point x="140" y="446"/>
      <point x="195" y="584"/>
      <point x="325" y="584" type="curve" smooth="yes"/>
      <point x="455" y="584"/>
      <point x="509" y="446"/>
      <point x="509" y="308" type="curve" smooth="yes"/>
      <point x="509" y="170"/>
      <point x="455" y="32"/>
    </contour>
    <contour>
      <point x="283" y="686" type="curve"/>
      <point x="299" y="664" type="line"/>
      <point x="337" y="683"/>
      <point x="376" y="704"/>
      <point x="414" y="725" type="curve" smooth="yes"/>
      <point x="448" y="745"/>
      <point x="460" y="759"/>
      <point x="460" y="776" type="curve" smooth="yes"/>
      <point x="460" y="794"/>
      <point x="444" y="806"/>
      <point x="425" y="806" type="curve" smooth="yes"/>
      <point x="410" y="806"/>
      <point x="394" y="797"/>
      <point x="368" y="771" type="curve" smooth="yes"/>
      <point x="340" y="744"/>
      <point x="311" y="715"/>
    </contour>
  </outline>
</glyph>
<glyph name="Ocircumflex" format="2">
  <advance width="650"/>
  <unicode hex="00D4"/>
  <anchor x="325" y="795" name="aboveUC"/>
  <anchor x="324" y="-20" name="belowLC"/>
  <anchor x="464" y="605" name="hornLC"/>
  <anchor x="408" y="0" name="ogonek"/>
  <outline>
    <contour>
      <point x="325" y="-13" type="curve" smooth="yes"/>
      <point x="468" y="-13"/>
      <point x="606" y="106"/>
      <point x="606" y="308" type="curve" smooth="yes"/>
      <point x="606" y="517"/>
      <point x="467" y="630"/>
      <point x="325" y="630" type="curve" smooth="yes"/>
      <point x="184" y="630"/>
      <point x="44" y="509"/>
      <point x="44" y="308" type="curve" smooth="yes"/>
      <point x="44" y="98"/>
      <point x="183" y="-13"/>
    </contour>
    <contour>
      <point x="325" y="32" type="curve" smooth="yes"/>
      <point x="195" y="32"/>
      <point x="140" y="170"/>
      <point x="140" y="308" type="curve" smooth="yes"/>
      <point x="140" y="446"/>
      <point x="195" y="584"/>
      <point x="325" y="584" type="curve" smooth="yes"/>
      <point x="455" y="584"/>
      <point x="509" y="446"/>
      <point x="509" y="308" type="curve" smooth="yes"/>
      <point x="509" y="170"/>
      <point x="455" y="32"/>
    </contour>
    <contour>
      <point x="340" y="786" type="line"/>
      <point x="310" y="786" type="line"/>
      <point x="191" y="682" type="line"/>
      <point x="208" y="660" type="line"/>
      <point x="364" y="749" type="line"/>
      <point x="287" y="749" type="line"/>
      <point x="442" y="660" type="line"/>
      <point x="460" y="682" type="line"/>
    </contour>
  </outline>
</glyph>
<glyph name="Otilde" format="2">
  <advance width="650"/>
  <unicode hex="00D5"/>
  <anchor x="325" y="803" name="aboveUC"/>
  <anchor x="324" y="-20" name="belowLC"/>
  <anchor x="464" y="605" name="hornLC"/>
  <anchor x="408" y="0" name="ogonek"/>
  <outline>
    <contour>
      <point x="325" y="-13" type="curve" smooth="yes"/>
      <point x="468" y="-13"/>
      <point x="606" y="106"/>
      <point x="606" y="308" type="curve" smooth="yes"/>
      <point x="606" y="517"/>
      <point x="467" y="630"/>
      <point x="325" y="630" type="curve" smooth="yes"/>
      <point x="184" y="630"/>
      <point x="44" y="509"/>
      <point x="44" y="308" type="curve" smooth="yes"/>
      <point x="44" y="98"/>
      <point x="183" y="-13"/>
    </contour>
    <contour>
      <point x="325" y="32" type="curve" smooth="yes"/>
      <point x="195" y="32"/>
      <point x="140" y="170"/>
      <point x="140" y="308" type="curve" smooth="yes"/>
      <point x="140" y="446"/>
      <point x="195" y="584"/>
      <point x="325" y="584" type="curve" smooth="yes"/>
      <point x="455" y="584"/>
      <point x="509" y="446"/>
      <point x="509" y="308" type="curve" smooth="yes"/>
      <point x="509" y="170"/>
      <point x="455" y="32"/>
    </contour>
    <contour>
      <point x="160" y="676" type="curve"/>
      <point x="186" y="667" type="line"/>
      <point x="201" y="713"/>
      <point x="219" y="742"/>
      <point x="250" y="742" type="curve" smooth="yes"/>
      <point x="277" y="742"/>
      <point x="297" y="716"/>
      <point x="320" y="697" type="curve" smooth="yes"/>
      <point x="340" y="680"/>
      <point x="361" y="666"/>
      <point x="395" y="666" type="curve" smooth="yes"/>
      <point x="452" y="666"/>
      <point x="479" y="713"/>
      <point x="491" y="783" type="curve"/>
      <point x="464" y="792" type="line"/>
      <point x="449" y="746"/>
      <point x="432" y="717"/>
      <point x="401" y="717" type="curve" smooth="yes"/>
      <point x="373" y="717"/>
      <point x="354" y="743"/>
      <point x="333" y="759" type="curve" smooth="yes"/>
      <point x="310" y="779"/>
      <point x="289" y="793"/>
      <point x="255" y="793" type="curve" smooth="yes"/>
      <point x="199" y="793"/>
      <point x="171" y="747"/>
    </contour>
  </outline>
</glyph>
<glyph name="Oslash" format="2">
  <advance width="650"/>
  <unicode hex="00D8"/>
  <anchor x="324" y="635" name="aboveUC"/>
  <outline>
    <contour>
      <point x="594" y="604" type="line"/>
      <point x="555" y="634" type="line"/>
      <point x="47" y="11" type="line"/>
      <point x="86" y="-18" type="line"/>
    </contour>
    <contour>
      <point x="131" y="308" type="curve" smooth="yes"/>
      <point x="131" y="446"/>
      <point x="188" y="584"/>
      <point x="325" y="584" type="curve" smooth="yes"/>
      <point x="462" y="584"/>
      <point x="518" y="446"/>
      <point x="518" y="308" type="curve" smooth="yes"/>
      <point x="518" y="170"/>
      <point x="462" y="32"/>
      <point x="325" y="32" type="curve" smooth="yes"/>
      <point x="188" y="32"/>
      <point x="131" y="170"/>
    </contour>
    <contour>
      <point x="325" y="630" type="curve" smooth="yes"/>
      <point x="184" y="630"/>
      <point x="44" y="509"/>
      <point x="44" y="308" type="curve" smooth="yes"/>
      <point x="44" y="98"/>
      <point x="183" y="-13"/>
      <point x="325" y="-13" type="curve" smooth="yes"/>
      <point x="468" y="-13"/>
      <point x="606" y="106"/>
      <point x="606" y="308" type="curve" smooth="yes"/>
      <point x="606" y="517"/>
      <point x="467" y="630"/>
    </contour>
  </outline>
</glyph>
<glyph name="Yacute" format="2">
  <advance width="582"/>
  <unicode hex="00DD"/>
  <anchor x="341" y="797" name="aboveUC"/>
  <anchor x="290" y="-20" name="belowLC"/>
  <outline>
    <contour>
      <point x="154" y="0" type="line"/>
      <point x="430" y="0" type="line"/>
      <point x="430" y="36" type="line"/>
      <point x="301" y="50" type="line"/>
      <point x="283" y="50" type="line"/>
      <point x="154" y="36" type="line"/>
    </contour>
    <contour>
      <point x="248" y="0" type="curve"/>
      <point x="336" y="0" type="line"/>
      <point x="333" y="81"/>
      <point x="333" y="171"/>
      <point x="333" y="276" type="curve"/>
      <point x="251" y="276" type="line"/>
      <point x="251" y="170"/>
      <point x="251" y="80"/>
    </contour>
    <contour>
      <point x="266" y="207" type="line"/>
      <point x="317" y="207" type="line"/>
      <point x="515" y="616" type="line"/>
      <point x="468" y="616" type="line"/>
      <point x="296" y="253" type="line"/>
      <point x="328" y="253" type="line"/>
      <point x="161" y="616" type="line"/>
      <point x="65" y="616" type="line"/>
    </contour>
    <contour>
      <point x="13" y="579" type="line"/>
      <point x="133" y="565" type="line"/>
      <point x="151" y="565" type="line"/>
      <point x="271" y="579" type="line"/>
      <point x="271" y="616" type="line"/>
      <point x="13" y="616" type="line"/>
    </contour>
    <contour>
      <point x="361" y="579" type="line"/>
      <point x="463" y="565" type="line"/>
      <point x="481" y="565" type="line"/>
      <point x="573" y="579" type="line"/>
      <point x="573" y="616" type="line"/>
      <point x="361" y="616" type="line"/>
    </contour>
    <contour>
      <point x="280" y="677" type="curve"/>
      <point x="297" y="655" type="line"/>
      <point x="334" y="674"/>
      <point x="373" y="695"/>
      <point x="411" y="716" type="curve" smooth="yes"/>
      <point x="445" y="736"/>
      <point x="457" y="750"/>
      <point x="457" y="767" type="curve" smooth="yes"/>
      <point x="457" y="785"/>
      <point x="441" y="797"/>
      <point x="423" y="797" type="curve" smooth="yes"/>
      <point x="407" y="797"/>
      <point x="391" y="788"/>
      <point x="366" y="762" type="curve" smooth="yes"/>
      <point x="337" y="735"/>
      <point x="309" y="706"/>
    </contour>
  </outline>
</glyph>
<glyph name="Thorn" format="2">
  <advance width="561"/>
  <unicode hex="00DE"/>
  <outline>
    <contour>
      <point x="161" y="565" type="line"/>
      <point x="184" y="565" type="line"/>
      <point x="303" y="579" type="line"/>
      <point x="303" y="616" type="line"/>
      <point x="41" y="616" type="line"/>
      <point x="41" y="579" type="line"/>
    </contour>
    <contour>
      <point x="161" y="50" type="line"/>
      <point x="41" y="36" type="line"/>
      <point x="41" y="0" type="line"/>
      <point x="303" y="0" type="line"/>
      <point x="303" y="36" type="line"/>
      <point x="184" y="50" type="line"/>
    </contour>
    <contour>
      <point x="128" y="285" type="line" smooth="yes"/>
      <point x="128" y="188"/>
      <point x="128" y="92"/>
      <point x="126" y="0" type="curve"/>
      <point x="214" y="0" type="line"/>
      <point x="212" y="92"/>
      <point x="211" y="194"/>
      <point x="211" y="285" type="curve" smooth="yes"/>
      <point x="211" y="333" type="line" smooth="yes"/>
      <point x="211" y="427"/>
      <point x="212" y="522"/>
      <point x="214" y="616" type="curve"/>
      <point x="126" y="616" type="line"/>
      <point x="128" y="521"/>
      <point x="128" y="425"/>
      <point x="128" y="331" type="curve" smooth="yes"/>
    </contour>
    <contour>
      <point x="538" y="318" type="curve" smooth="yes"/>
      <point x="538" y="422"/>
      <point x="460" y="492"/>
      <point x="300" y="492" type="curve" smooth="yes"/>
      <point x="170" y="492" type="line"/>
      <point x="170" y="449" type="line"/>
      <point x="289" y="449" type="line" smooth="yes"/>
      <point x="401" y="449"/>
      <point x="450" y="403"/>
      <point x="450" y="321" type="curve" smooth="yes"/>
      <point x="450" y="241"/>
      <point x="401" y="184"/>
      <point x="292" y="184" type="curve" smooth="yes"/>
      <point x="170" y="184" type="line"/>
      <point x="170" y="142" type="line"/>
      <point x="276" y="142" type="line" smooth="yes"/>
      <point x="487" y="142"/>
      <point x="538" y="231"/>
    </contour>
  </outline>
</glyph>
<glyph name="aacute" format="2">
  <advance width="467"/>
  <unicode hex="00E1"/>
  <anchor x="255" y="696" name="aboveLC"/>
  <anchor x="223" y="-20" name="belowLC"/>
  <anchor x="410" y="0" name="ogonek"/>
  <outline>
    <contour>
      <point x="42" y="26"/>
      <point x="98" y="-11"/>
      <point x="165" y="-11" type="curve" smooth="yes"/>
      <point x="221" y="-11"/>
      <point x="253" y="13"/>
      <point x="308" y="69" type="curve"/>
      <point x="334" y="69" type="line"/>
      <point x="322" y="115" type="line"/>
      <point x="246" y="58"/>
      <point x="227" y="47"/>
      <point x="195" y="47" type="curve" smooth="yes"/>
      <point x="152" y="47"/>
      <point x="120" y="67"/>
      <point x="120" y="115" type="curve" smooth="yes"/>
      <point x="120" y="142"/>
      <point x="129" y="177"/>
      <point x="212" y="209" type="curve" smooth="yes"/>
      <point x="240" y="220"/>
      <point x="294" y="238"/>
      <point x="335" y="246" type="curve"/>
      <point x="335" y="279" type="line"/>
      <point x="289" y="271"/>
      <point x="231" y="254"/>
      <point x="193" y="241" type="curve" smooth="yes"/>
      <point x="69" y="195"/>
      <point x="42" y="154"/>
      <point x="42" y="103" type="curve" smooth="yes"/>
    </contour>
    <contour>
      <point x="382" y="-9" type="curve" smooth="yes"/>
      <point x="414" y="-9"/>
      <point x="438" y="2"/>
      <point x="460" y="37" type="curve"/>
      <point x="442" y="57" type="line"/>
      <point x="432" y="46"/>
      <point x="422" y="37"/>
      <point x="406" y="37" type="curve" smooth="yes"/>
      <point x="385" y="37"/>
      <point x="372" y="52"/>
      <point x="372" y="93" type="curve" smooth="yes"/>
      <point x="372" y="288" type="line" smooth="yes"/>
      <point x="372" y="404"/>
      <point x="326" y="448"/>
      <point x="231" y="448" type="curve" smooth="yes"/>
      <point x="139" y="448"/>
      <point x="71" y="404"/>
      <point x="54" y="334" type="curve"/>
      <point x="56" y="311"/>
      <point x="70" y="298"/>
      <point x="95" y="298" type="curve" smooth="yes"/>
      <point x="120" y="298"/>
      <point x="134" y="312"/>
      <point x="142" y="339" type="curve" smooth="yes"/>
      <point x="166" y="418" type="line"/>
      <point x="129" y="390" type="line"/>
      <point x="163" y="403"/>
      <point x="191" y="406"/>
      <point x="212" y="406" type="curve" smooth="yes"/>
      <point x="273" y="406"/>
      <point x="299" y="384"/>
      <point x="299" y="294" type="curve" smooth="yes"/>
      <point x="299" y="84" type="line"/>
      <point x="299" y="27"/>
      <point x="332" y="-9"/>
    </contour>
    <contour>
      <point x="202" y="529" type="curve"/>
      <point x="225" y="512" type="line"/>
      <point x="264" y="546"/>
      <point x="300" y="579"/>
      <point x="337" y="613" type="curve" smooth="yes"/>
      <point x="362" y="636"/>
      <point x="367" y="650"/>
      <point x="367" y="662" type="curve" smooth="yes"/>
      <point x="367" y="685"/>
      <point x="350" y="696"/>
      <point x="333" y="696" type="curve" smooth="yes"/>
      <point x="317" y="696"/>
      <point x="301" y="687"/>
      <point x="284" y="659" type="curve" smooth="yes"/>
      <point x="255" y="616"/>
      <point x="229" y="573"/>
    </contour>
  </outline>
</glyph>
<glyph name="egrave" format="2">
  <advance width="468"/>
  <unicode hex="00E8"/>
  <anchor x="233" y="678" name="aboveLC"/>
  <anchor x="261" y="-20" name="belowLC"/>
  <anchor x="315" y="0" name="ogonek"/>
  <outline>
    <contour>
      <point x="42" y="73"/>
      <point x="122" y="-11"/>
      <point x="245" y="-11" type="curve" smooth="yes"/>
      <point x="329" y="-11"/>
      <point x="388" y="29"/>
      <point x="421" y="94" type="curve"/>
      <point x="400" y="111" type="line"/>
      <point x="367" y="72"/>
      <point x="330" y="46"/>
      <point x="271" y="46" type="curve" smooth="yes"/>
      <point x="179" y="46"/>
      <point x="120" y="108"/>
      <point x="120" y="225" type="curve" smooth="yes"/>
      <point x="120" y="356"/>
      <point x="188" y="406"/>
      <point x="247" y="406" type="curve" smooth="yes"/>
      <point x="305" y="406"/>
      <point x="349" y="358"/>
      <point x="349" y="306" type="curve" smooth="yes"/>
      <point x="349" y="280"/>
      <point x="339" y="259"/>
      <point x="295" y="259" type="curve" smooth="yes"/>
      <point x="76" y="259" type="line"/>
      <point x="76" y="220" type="line"/>
      <point x="415" y="220" type="line"/>
      <point x="419" y="232"/>
      <point x="422" y="251"/>
      <point x="422" y="272" type="curve" smooth="yes"/>
      <point x="422" y="383"/>
      <point x="346" y="448"/>
      <point x="252" y="448" type="curve" smooth="yes"/>
      <point x="138" y="448"/>
      <point x="42" y="354"/>
      <point x="42" y="213" type="curve" smooth="yes"/>
    </contour>
    <contour>
      <point x="283" y="529" type="line"/>
      <point x="256" y="573"/>
      <point x="230" y="616"/>
      <point x="201" y="659" type="curve" smooth="yes"/>
      <point x="184" y="687"/>
      <point x="168" y="696"/>
      <point x="152" y="696" type="curve" smooth="yes"/>
      <point x="135" y="696"/>
      <point x="118" y="685"/>
      <point x="118" y="662" type="curve" smooth="yes"/>
      <point x="118" y="650"/>
      <point x="123" y="636"/>
      <point x="148" y="613" type="curve" smooth="yes"/>
      <point x="184" y="579"/>
      <point x="221" y="546"/>
      <point x="260" y="512" type="curve"/>
    </contour>
  </outline>
</glyph>
<glyph name="igrave" format="2">
  <advance width="273"/>
  <unicode hex="00EC"/>
  <anchor x="129" y="678" name="aboveLC"/>
  <anchor x="136" y="-20" name="belowLC"/>
  <anchor x="172" y="0" name="ogonek"/>
  <outline>
    <contour>
      <point x="101" y="0" type="curve"/>
      <point x="180" y="0" type="line"/>
      <point x="178" y="41"/>
      <point x="177" y="136"/>
      <point x="177" y="193" type="curve" smooth="yes"/>
      <point x="177" y="314" type="line"/>
      <point x="180" y="438" type="line"/>
      <point x="166" y="448" type="line"/>
      <point x="27" y="392" type="line"/>
      <point x="27" y="360" type="line"/>
      <point x="101" y="352" type="line"/>
      <point x="103" y="315"/>
      <point x="103" y="287"/>
      <point x="103" y="236" type="curve" smooth="yes"/>
      <point x="103" y="193" type="line" smooth="yes"/>
      <point x="103" y="136"/>
      <point x="103" y="41"/>
    </contour>
    <contour>
      <point x="32" y="0" type="line"/>
      <point x="243" y="0" type="line"/>
      <point x="243" y="32" type="line"/>
      <point x="151" y="50" type="line"/>
      <point x="133" y="50" type="line"/>
      <point x="32" y="32" type="line"/>
    </contour>
    <contour>
      <point x="179" y="529" type="line"/>
      <point x="152" y="573"/>
      <point x="126" y="616"/>
      <point x="97" y="659" type="curve" smooth="yes"/>
      <point x="80" y="687"/>
      <point x="64" y="696"/>
      <point x="48" y="696" type="curve" smooth="yes"/>
      <point x="31" y="696"/>
      <point x="14" y="685"/>
      <point x="14" y="662" type="curve" smooth="yes"/>
      <point x="14" y="650"/>
      <point x="19" y="636"/>
      <point x="44" y="613" type="curve" smooth="yes"/>
      <point x="80" y="579"/>
      <point x="117" y="546"/>
      <point x="156" y="512" type="curve"/>
    </contour>
  </outline>
</glyph>
<glyph name="idieresis" format="2">
  <advance width="273"/>
  <unicode hex="00EF"/>
  <anchor x="135" y="465" name="aboveLC"/>
  <anchor x="136" y="-20" name="belowLC"/>
  <anchor x="172" y="0" name="ogonek"/>
  <outline>
    <contour>
      <point x="49" y="549" type="curve" smooth="yes"/>
      <point x="79" y="549"/>
      <point x="103" y="571"/>
      <point x="103" y="600" type="curve" smooth="yes"/>
      <point x="103" y="630"/>
      <point x="79" y="652"/>
      <point x="49" y="652" type="curve" smooth="yes"/>
      <point x="20" y="652"/>
      <point x="-3" y="630"/>
      <point x="-3" y="600" type="curve" smooth="yes"/>
      <point x="-3" y="571"/>
      <point x="20" y="549"/>
    </contour>
    <contour>
      <point x="222" y="549" type="curve" smooth="yes"/>
      <point x="252" y="549"/>
      <point x="276" y="571"/>
      <point x="276" y="600" type="curve" smooth="yes"/>
      <point x="276" y="630"/>
      <point x="252" y="652"/>
      <point x="222" y="652" type="curve" smooth="yes"/>
      <point x="193" y="652"/>
      <point x="168" y="630"/>
      <point x="168" y="600" type="curve" smooth="yes"/>
      <point x="168" y="571"/>
      <point x="193" y="549"/>
    </contour>
    <contour>
      <point x="101" y="0" type="curve"/>
      <point x="180" y="0" type="line"/>
      <point x="178" y="41"/>
      <point x="177" y="136"/>
      <point x="177" y="193" type="curve" smooth="yes"/>
      <point x="177" y="314" type="line"/>
      <point x="180" y="438" type="line"/>
      <point x="166" y="448" type="line"/>
      <point x="27" y="392" type="line"/>
      <point x="27" y="360" type="line"/>
      <point x="101" y="352" type="line"/>
      <point x="103" y="315"/>
      <point x="103" y="287"/>
      <point x="103" y="236" type="curve" smooth="yes"/>
      <point x="103" y="193" type="line" smooth="yes"/>
      <point x="103" y="136"/>
      <point x="103" y="41"/>
    </contour>
    <contour>
      <point x="32" y="0" type="line"/>
      <point x="243" y="0" type="line"/>
      <point x="243" y="32" type="line"/>
      <point x="151" y="50" type="line"/>
      <point x="133" y="50" type="line"/>
      <point x="32" y="32" type="line"/>
    </contour>
  </outline>
</glyph>
<glyph name="eth" format="2">
  <advance width="501"/>
  <unicode hex="00F0"/>
  <outline>
    <contour>
      <point x="241" y="-11" type="curve" smooth="yes"/>
      <point x="377" y="-11"/>
      <point x="453" y="92"/>
      <point x="453" y="257" type="curve" smooth="yes"/>
      <point x="453" y="471"/>
      <point x="329" y="609"/>
      <point x="159" y="690" type="curve"/>
      <point x="140" y="660" type="line"/>
      <point x="278" y="571"/>
      <point x="341" y="494"/>
      <point x="376" y="342" type="curve"/>
      <point x="387" y="346" type="line"/>
      <point x="365" y="406"/>
      <point x="311" y="436"/>
      <point x="244" y="436" type="curve" smooth="yes"/>
      <point x="142" y="436"/>
      <point x="42" y="357"/>
      <point x="42" y="215" type="curve" smooth="yes"/>
      <point x="42" y="67"/>
      <point x="138" y="-11"/>
    </contour>
    <contour>
      <point x="249" y="29" type="curve" smooth="yes"/>
      <point x="171" y="29"/>
      <point x="125" y="92"/>
      <point x="125" y="210" type="curve" smooth="yes"/>
      <point x="125" y="328"/>
      <point x="167" y="394"/>
      <point x="249" y="394" type="curve" smooth="yes"/>
      <point x="329" y="394"/>
      <point x="379" y="338"/>
      <point x="379" y="223" type="curve" smooth="yes"/>
      <point x="379" y="101"/>
      <point x="336" y="29"/>
    </contour>
    <contour>
      <point x="146" y="483" type="line"/>
      <point x="452" y="640" type="line"/>
      <point x="436" y="673" type="line"/>
      <point x="129" y="516" type="line"/>
    </contour>
  </outline>
</glyph>
<glyph name="thorn" format="2">
  <advance width="506"/>
  <unicode hex="00FE"/>
  <anchor x="253" y="679" name="aboveLC"/>
  <anchor x="339" y="-3" name="belowLC"/>
  <outline>
    <contour>
      <point x="386" y="214" type="curve" smooth="yes"/>
      <point x="386" y="95"/>
      <point x="329" y="38"/>
      <point x="263" y="38" type="curve" smooth="yes"/>
      <point x="219" y="38"/>
      <point x="170" y="63"/>
      <point x="122" y="124" type="curve"/>
      <point x="114" y="109" type="line"/>
      <point x="162" y="13"/>
      <point x="219" y="-11"/>
      <point x="276" y="-11" type="curve" smooth="yes"/>
      <point x="383" y="-11"/>
      <point x="464" y="80"/>
      <point x="464" y="222" type="curve" smooth="yes"/>
      <point x="464" y="364"/>
      <point x="387" y="448"/>
      <point x="289" y="448" type="curve" smooth="yes"/>
      <point x="227" y="448"/>
      <point x="167" y="413"/>
      <point x="114" y="332" type="curve"/>
      <point x="122" y="315" type="line"/>
      <point x="189" y="382"/>
      <point x="234" y="397"/>
      <point x="267" y="397" type="curve" smooth="yes"/>
      <point x="337" y="397"/>
      <point x="386" y="333"/>
    </contour>
    <contour>
      <point x="126" y="-170" type="line"/>
      <point x="108" y="-170" type="line"/>
      <point x="4" y="-188" type="line"/>
      <point x="4" y="-220" type="line"/>
      <point x="240" y="-220" type="line"/>
      <point x="240" y="-188" type="line"/>
    </contour>
    <contour>
      <point x="155" y="354" type="line"/>
      <point x="152" y="366" type="line"/>
      <point x="152" y="542" type="line"/>
      <point x="156" y="673" type="line"/>
      <point x="143" y="680" type="line"/>
      <point x="5" y="639" type="line"/>
      <point x="5" y="607" type="line"/>
      <point x="81" y="598" type="line"/>
      <point x="81" y="-27" type="line" smooth="yes"/>
      <point x="81" y="-92"/>
      <point x="80" y="-156"/>
      <point x="79" y="-220" type="curve"/>
      <point x="155" y="-220" type="line"/>
      <point x="153" y="-156"/>
      <point x="152" y="-92"/>
      <point x="152" y="-27" type="curve" smooth="yes"/>
      <point x="152" y="66" type="line"/>
      <point x="155" y="71" type="line"/>
    </contour>
  </outline>
</glyph>
<glyph name="zcaron" format="2">
  <advance width="418"/>
  <unicode hex="017E"/>
  <anchor x="218" y="668" name="aboveLC"/>
  <anchor x="221" y="-20" name="belowLC"/>
  <outline>
    <contour>
      <point x="27" y="0" type="line"/>
      <point x="386" y="0" type="line"/>
      <point x="395" y="149" type="line"/>
      <point x="349" y="149" type="line"/>
      <point x="315" y="11" type="line"/>
      <point x="349" y="38" type="line"/>
      <point x="89" y="38" type="line"/>
      <point x="100" y="16" type="line"/>
      <point x="381" y="403" type="line"/>
      <point x="381" y="436" type="line"/>
      <point x="40" y="436" type="line"/>
      <point x="33" y="299" type="line"/>
      <point x="79" y="295" type="line"/>
      <point x="110" y="424" type="line"/>
      <point x="76" y="397" type="line"/>
      <point x="320" y="397" type="line"/>
      <point x="309" y="419" type="line"/>
      <point x="27" y="32" type="line"/>
    </contour>
    <contour>
      <point x="113" y="678" type="line"/>
      <point x="91" y="660" type="line"/>
      <point x="184" y="525" type="line"/>
      <point x="252" y="525" type="line"/>
      <point x="345" y="660" type="line"/>
      <point x="322" y="678" type="line"/>
      <point x="179" y="546" type="line"/>
      <point x="256" y="546" type="line"/>
    </contour>
  </outline>
</glyph>
<glyph name="caron" format="2">
  <advance width="368"/>
  <unicode hex="02C7"/>
  <anchor x="184" y="465" name="_aboveLC"/>
  <anchor x="184" y="668" name="aboveLC"/>
  <outline>
    <contour>
      <point x="79" y="678" type="line"/>
      <point x="57" y="660" type="line"/>
      <point x="149" y="525" type="line"/>
      <point x="218" y="525" type="line"/>
      <point x="310" y="660" type="line"/>
      <point x="288" y="678" type="line"/>
      <point x="145" y="546" type="line"/>
      <point x="222" y="546" type="line"/>
    </contour>
  </outline>
</glyph>
<glyph name="uni02CD" format="2">
  <advance width="442"/>
  <unicode hex="02CD"/>
  <outline>
    <contour>
      <point x="67" y="0" type="line"/>
      <point x="375" y="0" type="line"/>
      <point x="375" y="64" type="line"/>
      <point x="67" y="64" type="line"/>
    </contour>
  </outline>
</glyph>
<glyph name="ogonek" format="2">
  <advance width="368"/>
  <unicode hex="02DB"/>
  <anchor x="178" y="0" name="_ogonek"/>
  <outline>
    <contour>
      <point x="91" y="-121" type="curve" smooth="yes"/>
      <point x="91" y="-172"/>
      <point x="126" y="-202"/>
      <point x="176" y="-202" type="curve" smooth="yes"/>
      <point x="208" y="-202"/>
      <point x="248" y="-190"/>
      <point x="269" y="-160" type="curve"/>
      <point x="257" y="-138" type="line"/>
      <point x="239" y="-149"/>
      <point x="220" y="-151"/>
      <point x="208" y="-151" type="curve" smooth="yes"/>
      <point x="173" y="-151"/>
      <point x="147" y="-128"/>
      <point x="147" y="-89" type="curve" smooth="yes"/>
      <point x="147" y="-52"/>
      <point x="170" y="-12"/>
      <point x="208" y="11" type="curve"/>
      <point x="183" y="11" type="line"/>
      <point x="134" y="-12"/>
      <point x="91" y="-65"/>
    </contour>
  </outline>
</glyph>
<glyph name="hungarumlaut" format="2">
  <advance width="368"/>
  <unicode hex="02DD"/>
  <anchor x="166" y="465" name="_aboveLC"/>
  <anchor x="166" y="693" name="aboveLC"/>
  <outline>
    <contour>
      <point x="63" y="521" type="line"/>
      <point x="88" y="506" type="line"/>
      <point x="173" y="614" type="line" smooth="yes"/>
      <point x="191" y="636"/>
      <point x="194" y="651"/>
      <point x="194" y="660" type="curve" smooth="yes"/>
      <point x="194" y="680"/>
      <point x="179" y="693"/>
      <point x="161" y="693" type="curve" smooth="yes"/>
      <point x="146" y="693"/>
      <point x="126" y="683"/>
      <point x="114" y="652" type="curve" smooth="yes"/>
    </contour>
    <contour>
      <point x="194" y="521" type="line"/>
      <point x="218" y="506" type="line"/>
      <point x="304" y="614" type="line" smooth="yes"/>
      <point x="322" y="636"/>
      <point x="324" y="651"/>
      <point x="324" y="660" type="curve" smooth="yes"/>
      <point x="324" y="680"/>
      <point x="310" y="693"/>
      <point x="292" y="693" type="curve" smooth="yes"/>
      <point x="276" y="693"/>
      <point x="256" y="683"/>
      <point x="244" y="652" type="curve" smooth="yes"/>
    </contour>
  </outline>
</glyph>
<glyph name="quoteleft" format="2">
  <advance width="273"/>
  <unicode hex="2018"/>
  <outline>
    <contour>
      <point x="205" y="588" type="line"/>
      <point x="131" y="560"/>
      <point x="96" y="505"/>
      <point x="96" y="439" type="curve" smooth="yes"/>
      <point x="96" y="386"/>
      <point x="118" y="358"/>
      <point x="157" y="358" type="curve" smooth="yes"/>
      <point x="188" y="358"/>
      <point x="211" y="382"/>
      <point x="211" y="413" type="curve" smooth="yes"/>
      <point x="211" y="444"/>
      <point x="192" y="464"/>
      <point x="169" y="464" type="curve" smooth="yes"/>
      <point x="146" y="464"/>
      <point x="121" y="446"/>
      <point x="121" y="423" type="curve"/>
      <point x="126" y="423"/>
      <point x="148" y="423"/>
      <point x="155" y="423" type="curve"/>
      <point x="150" y="432"/>
      <point x="145" y="445"/>
      <point x="145" y="471" type="curve" smooth="yes"/>
      <point x="145" y="513"/>
      <point x="179" y="536"/>
      <point x="213" y="553" type="curve"/>
    </contour>
  </outline>
</glyph>
<glyph name="quotesinglbase" format="2">
  <advance width="195"/>
  <unicode hex="201A"/>
  <outline>
    <contour>
      <point x="160" y="55" type="curve" smooth="yes"/>
      <point x="160" y="78"/>
      <point x="155" y="100"/>
      <point x="148" y="119" type="curve"/>
      <point x="133" y="133"/>
      <point x="116" y="138"/>
      <point x="98" y="138" type="curve" smooth="yes"/>
      <point x="66" y="138"/>
      <point x="46" y="121"/>
      <point x="46" y="84" type="curve" smooth="yes"/>
      <point x="46" y="61"/>
      <point x="54" y="40"/>
      <point x="81" y="16" type="curve" smooth="yes"/>
      <point x="122" y="-21" type="line"/>
      <point x="115" y="11" type="line"/>
      <point x="92" y="-50"/>
      <point x="68" y="-78"/>
      <point x="16" y="-118" type="curve"/>
      <point x="34" y="-143" type="line"/>
      <point x="102" y="-98"/>
      <point x="160" y="-24"/>
    </contour>
  </outline>
</glyph>
<glyph name="quotedblbase" format="2">
  <advance width="380"/>
  <unicode hex="201E"/>
  <outline>
    <contour>
      <point x="160" y="55" type="curve" smooth="yes"/>
      <point x="160" y="78"/>
      <point x="155" y="100"/>
      <point x="148" y="119" type="curve"/>
      <point x="133" y="133"/>
      <point x="116" y="138"/>
      <point x="98" y="138" type="curve" smooth="yes"/>
      <point x="66" y="138"/>
      <point x="46" y="121"/>
      <point x="46" y="84" type="curve" smooth="yes"/>
      <point x="46" y="61"/>
      <point x="54" y="40"/>
      <point x="81" y="16" type="curve" smooth="yes"/>
      <point x="122" y="-21" type="line"/>
      <point x="115" y="11" type="line"/>
      <point x="92" y="-50"/>
      <point x="68" y="-78"/>
      <point x="16" y="-118" type="curve"/>
      <point x="34" y="-143" type="line"/>
      <point x="102" y="-98"/>
      <point x="160" y="-24"/>
    </contour>
    <contour>
      <point x="345" y="55" type="curve" smooth="yes"/>
      <point x="345" y="78"/>
      <point x="341" y="100"/>
      <point x="333" y="119" type="curve"/>
      <point x="319" y="133"/>
      <point x="302" y="138"/>
      <point x="284" y="138" type="curve" smooth="yes"/>
      <point x="252" y="138"/>
      <point x="231" y="121"/>
      <point x="231" y="84" type="curve" smooth="yes"/>
      <point x="231" y="61"/>
      <point x="240" y="40"/>
      <point x="267" y="16" type="curve" smooth="yes"/>
      <point x="308" y="-21" type="line"/>
      <point x="300" y="11" type="line"/>
      <point x="277" y="-50"/>
      <point x="253" y="-78"/>
      <point x="202" y="-118" type="curve"/>
      <point x="219" y="-143" type="line"/>
      <point x="287" y="-98"/>
      <point x="345" y="-24"/>
    </contour>
  </outline>
</glyph>
<glyph name="dagger" format="2">
  <advance width="469"/>
  <unicode hex="2020"/>
  <outline>
    <contour>
      <point x="36" y="443" type="curve" smooth="yes"/>
      <point x="36" y="419"/>
      <point x="48" y="404"/>
      <point x="79" y="404" type="curve" smooth="yes"/>
      <point x="103" y="404"/>
      <point x="141" y="413"/>
      <point x="171" y="418" type="curve" smooth="yes"/>
      <point x="234" y="431" type="line"/>
      <point x="234" y="455" type="line"/>
      <point x="171" y="468" type="line" smooth="yes"/>
      <point x="141" y="473"/>
      <point x="103" y="482"/>
      <point x="79" y="482" type="curve" smooth="yes"/>
      <point x="48" y="482"/>
      <point x="36" y="467"/>
    </contour>
    <contour>
      <point x="198" y="285" type="curve" smooth="yes"/>
      <point x="198" y="248"/>
      <point x="207" y="129"/>
      <point x="222" y="-64" type="curve"/>
      <point x="246" y="-64" type="line"/>
      <point x="261" y="129"/>
      <point x="270" y="247"/>
      <point x="270" y="285" type="curve" smooth="yes"/>
      <point x="270" y="340"/>
      <point x="262" y="371"/>
      <point x="246" y="443" type="curve"/>
      <point x="222" y="443" type="line"/>
      <point x="207" y="371"/>
      <point x="198" y="339"/>
    </contour>
    <contour>
      <point x="234" y="659" type="curve" smooth="yes"/>
      <point x="210" y="659"/>
      <point x="195" y="647"/>
      <point x="195" y="617" type="curve" smooth="yes"/>
      <point x="195" y="589"/>
      <point x="206" y="532"/>
      <point x="210" y="506" type="curve" smooth="yes"/>
      <point x="221" y="443" type="line"/>
      <point x="247" y="443" type="line"/>
      <point x="258" y="506" type="line" smooth="yes"/>
      <point x="263" y="532"/>
      <point x="273" y="589"/>
      <point x="273" y="617" type="curve" smooth="yes"/>
      <point x="273" y="647"/>
      <point x="258" y="659"/>
    </contour>
    <contour>
      <point x="432" y="443" type="curve" smooth="yes"/>
      <point x="432" y="467"/>
      <point x="420" y="482"/>
      <point x="390" y="482" type="curve" smooth="yes"/>
      <point x="366" y="482"/>
      <point x="327" y="473"/>
      <point x="298" y="468" type="curve" smooth="yes"/>
      <point x="234" y="455" type="line"/>
      <point x="234" y="431" type="line"/>
      <point x="298" y="418" type="line" smooth="yes"/>
      <point x="327" y="413"/>
      <point x="366" y="404"/>
      <point x="390" y="404" type="curve" smooth="yes"/>
      <point x="420" y="404"/>
      <point x="432" y="419"/>
    </contour>
  </outline>
</glyph>
<glyph name="ellipsis" format="2">
  <advance width="828"/>
  <unicode hex="2026"/>
  <outline>
    <contour>
      <point x="138" y="-11" type="curve" smooth="yes"/>
      <point x="173" y="-11"/>
      <point x="202" y="17"/>
      <point x="202" y="52" type="curve" smooth="yes"/>
      <point x="202" y="88"/>
      <point x="173" y="117"/>
      <point x="138" y="117" type="curve" smooth="yes"/>
      <point x="102" y="117"/>
      <point x="73" y="88"/>
      <point x="73" y="52" type="curve" smooth="yes"/>
      <point x="73" y="17"/>
      <point x="102" y="-11"/>
    </contour>
    <contour>
      <point x="414" y="-11" type="curve" smooth="yes"/>
      <point x="449" y="-11"/>
      <point x="478" y="17"/>
      <point x="478" y="52" type="curve" smooth="yes"/>
      <point x="478" y="88"/>
      <point x="449" y="117"/>
      <point x="414" y="117" type="curve" smooth="yes"/>
      <point x="378" y="117"/>
      <point x="349" y="88"/>
      <point x="349" y="52" type="curve" smooth="yes"/>
      <point x="349" y="17"/>
      <point x="378" y="-11"/>
    </contour>
    <contour>
      <point x="690" y="-11" type="curve" smooth="yes"/>
      <point x="725" y="-11"/>
      <point x="754" y="17"/>
      <point x="754" y="52" type="curve" smooth="yes"/>
      <point x="754" y="88"/>
      <point x="725" y="117"/>
      <point x="690" y="117" type="curve" smooth="yes"/>
      <point x="654" y="117"/>
      <point x="625" y="88"/>
      <point x="625" y="52" type="curve" smooth="yes"/>
      <point x="625" y="17"/>
      <point x="654" y="-11"/>
    </contour>
  </outline>
</glyph>
<glyph name="guilsinglleft" format="2">
  <advance width="259"/>
  <unicode hex="2039"/>
  <outline>
    <contour>
      <point x="214" y="46" type="line"/>
      <point x="236" y="71" type="line"/>
      <point x="83" y="250" type="line"/>
      <point x="83" y="214" type="line"/>
      <point x="236" y="392" type="line"/>
      <point x="214" y="417" type="line"/>
      <point x="27" y="256" type="line"/>
      <point x="27" y="207" type="line"/>
    </contour>
  </outline>
</glyph>
<glyph name="trademark" format="2">
  <advance width="661"/>
  <unicode hex="2122"/>
  <outline>
    <contour>
      <point x="319" y="616" type="line"/>
      <point x="319" y="345" type="line"/>
      <point x="345" y="345" type="line"/>
      <point x="345" y="616" type="line"/>
    </contour>
    <contour>
      <point x="287" y="616" type="line"/>
      <point x="287" y="590" type="line"/>
      <point x="342" y="585" type="line"/>
      <point x="314" y="611" type="line"/>
      <point x="435" y="345" type="line"/>
      <point x="450" y="345" type="line"/>
      <point x="573" y="616" type="line"/>
      <point x="546" y="616" type="line"/>
      <point x="452" y="414" type="line"/>
      <point x="466" y="414" type="line"/>
      <point x="368" y="616" type="line"/>
    </contour>
    <contour>
      <point x="565" y="585" type="line"/>
      <point x="575" y="585" type="line"/>
      <point x="633" y="590" type="line"/>
      <point x="633" y="616" type="line"/>
      <point x="565" y="616" type="line"/>
    </contour>
    <contour>
      <point x="541" y="345" type="line"/>
      <point x="599" y="345" type="line"/>
      <point x="599" y="616" type="line"/>
      <point x="556" y="616" type="line"/>
      <point x="541" y="578" type="line"/>
    </contour>
    <contour>
      <point x="565" y="378" type="line"/>
      <point x="507" y="371" type="line"/>
      <point x="507" y="345" type="line"/>
      <point x="633" y="345" type="line"/>
      <point x="633" y="371" type="line"/>
      <point x="575" y="378" type="line"/>
    </contour>
    <contour>
      <point x="325" y="378" type="line"/>
      <point x="283" y="371" type="line"/>
      <point x="283" y="345" type="line"/>
      <point x="381" y="345" type="line"/>
      <point x="381" y="371" type="line"/>
      <point x="338" y="378" type="line"/>
    </contour>
    <contour>
      <point x="121" y="378" type="line"/>
      <point x="63" y="371" type="line"/>
      <point x="63" y="345" type="line"/>
      <point x="197" y="345" type="line"/>
      <point x="197" y="371" type="line"/>
      <point x="140" y="378" type="line"/>
    </contour>
    <contour>
      <point x="102" y="345" type="line"/>
      <point x="160" y="345" type="line"/>
      <point x="160" y="616" type="line"/>
      <point x="102" y="616" type="line"/>
    </contour>
    <contour>
      <point x="237" y="589" type="line"/>
      <point x="211" y="616" type="line"/>
      <point x="222" y="539" type="line"/>
      <point x="253" y="539" type="line"/>
      <point x="251" y="616" type="line"/>
      <point x="11" y="616" type="line"/>
      <point x="9" y="539" type="line"/>
      <point x="39" y="539" type="line"/>
      <point x="50" y="616" type="line"/>
      <point x="24" y="589" type="line"/>
    </contour>
  </outline>
</glyph>
<glyph name="partialdiff" format="2">
  <advance width="485"/>
  <unicode hex="2202"/>
  <outline>
    <contour>
      <point x="208" y="-12" type="curve" smooth="yes"/>
      <point x="351" y="-12"/>
      <point x="457" y="140"/>
      <point x="457" y="360" type="curve" smooth="yes"/>
      <point x="457" y="520"/>
      <point x="360" y="602"/>
      <point x="261" y="602" type="curve" smooth="yes"/>
      <point x="207" y="602"/>
      <point x="164" y="588"/>
      <point x="126" y="567" type="curve"/>
      <point x="136" y="534" type="line"/>
      <point x="173" y="549"/>
      <point x="195" y="555"/>
      <point x="226" y="555" type="curve" smooth="yes"/>
      <point x="310" y="555"/>
      <point x="374" y="503"/>
      <point x="374" y="353" type="curve" smooth="yes"/>
      <point x="374" y="149"/>
      <point x="295" y="28"/>
      <point x="218" y="28" type="curve" smooth="yes"/>
      <point x="172" y="28"/>
      <point x="138" y="69"/>
      <point x="138" y="143" type="curve" smooth="yes"/>
      <point x="138" y="262"/>
      <point x="207" y="331"/>
      <point x="277" y="331" type="curve" smooth="yes"/>
      <point x="320" y="331"/>
      <point x="352" y="315"/>
      <point x="384" y="287" type="curve"/>
      <point x="392" y="312" type="line"/>
      <point x="366" y="354"/>
      <point x="321" y="375"/>
      <point x="264" y="375" type="curve" smooth="yes"/>
      <point x="149" y="375"/>
      <point x="56" y="281"/>
      <point x="56" y="150" type="curve" smooth="yes"/>
      <point x="56" y="44"/>
      <point x="122" y="-12"/>
    </contour>
  </outline>
</glyph>
<glyph name="Delta" format="2">
  <advance width="542"/>
  <unicode hex="2206"/>
  <outline>
    <contour>
      <point x="23" y="0" type="line"/>
      <point x="53" y="0" type="line"/>
      <point x="259" y="551" type="line"/>
      <point x="238" y="551" type="line"/>
      <point x="442" y="0" type="line"/>
      <point x="515" y="0" type="line"/>
      <point x="515" y="36" type="line"/>
      <point x="297" y="621" type="line"/>
      <point x="241" y="621" type="line"/>
      <point x="23" y="36" type="line"/>
    </contour>
    <contour>
      <point x="44" y="0" type="line"/>
      <point x="483" y="0" type="line"/>
      <point x="483" y="73" type="line"/>
      <point x="44" y="73" type="line"/>
    </contour>
  </outline>
</glyph>
<glyph name="summation" format="2">
  <advance width="515"/>
  <unicode hex="2211"/>
  <outline>
    <contour>
      <point x="421" y="452" type="line"/>
      <point x="476" y="452" type="line"/>
      <point x="469" y="616" type="line"/>
      <point x="62" y="616" type="line"/>
      <point x="62" y="570" type="line"/>
      <point x="437" y="570" type="line"/>
      <point x="386" y="616" type="line"/>
    </contour>
    <contour>
      <point x="18" y="-119" type="line"/>
      <point x="489" y="-119" type="line"/>
      <point x="496" y="71" type="line"/>
      <point x="441" y="71" type="line"/>
      <point x="406" y="-92" type="line"/>
      <point x="457" y="-46" type="line"/>
      <point x="63" y="-46" type="line"/>
      <point x="75" y="-69" type="line"/>
      <point x="324" y="263" type="line"/>
      <point x="97" y="616" type="line"/>
      <point x="23" y="616" type="line"/>
      <point x="23" y="575" type="line"/>
      <point x="270" y="194" type="line"/>
      <point x="289" y="299" type="line"/>
      <point x="18" y="-64" type="line"/>
    </contour>
  </outline>
</glyph>
<glyph name="radical" format="2">
  <advance width="512"/>
  <unicode hex="221A"/>
  <outline>
    <contour>
      <point x="109" y="306" type="line"/>
      <point x="264" y="-92" type="line"/>
      <point x="308" y="-92" type="line"/>
      <point x="504" y="719" type="line"/>
      <point x="433" y="719" type="line"/>
      <point x="281" y="-43" type="line"/>
      <point x="316" y="-42" type="line"/>
      <point x="180" y="326" type="line"/>
      <point x="40" y="326" type="line"/>
      <point x="40" y="280" type="line"/>
      <point x="136" y="280" type="line"/>
    </contour>
  </outline>
</glyph>
<glyph name="infinity" format="2">
  <advance width="722"/>
  <unicode hex="221E"/>
  <outline>
    <contour>
      <point x="336" y="266" type="curve" smooth="yes"/>
      <point x="386" y="204"/>
      <point x="444" y="142"/>
      <point x="530" y="142" type="curve" smooth="yes"/>
      <point x="622" y="142"/>
      <point x="685" y="213"/>
      <point x="685" y="307" type="curve" smooth="yes"/>
      <point x="685" y="398"/>
      <point x="623" y="462"/>
      <point x="542" y="462" type="curve" smooth="yes"/>
      <point x="477" y="462"/>
      <point x="414" y="425"/>
      <point x="357" y="325" type="curve"/>
      <point x="371" y="293" type="line"/>
      <point x="430" y="370"/>
      <point x="462" y="405"/>
      <point x="534" y="405" type="curve" smooth="yes"/>
      <point x="592" y="405"/>
      <point x="639" y="363"/>
      <point x="639" y="302" type="curve" smooth="yes"/>
      <point x="639" y="251"/>
      <point x="604" y="212"/>
      <point x="544" y="212" type="curve" smooth="yes"/>
      <point x="485" y="212"/>
      <point x="436" y="273"/>
      <point x="385" y="338" type="curve" smooth="yes"/>
      <point x="335" y="401"/>
      <point x="277" y="462"/>
      <point x="191" y="462" type="curve" smooth="yes"/>
      <point x="99" y="462"/>
      <point x="36" y="391"/>
      <point x="36" y="298" type="curve" smooth="yes"/>
      <point x="36" y="207"/>
      <point x="98" y="142"/>
      <point x="179" y="142" type="curve" smooth="yes"/>
      <point x="244" y="142"/>
      <point x="307" y="180"/>
      <point x="364" y="279" type="curve"/>
      <point x="350" y="311" type="line"/>
      <point x="291" y="234"/>
      <point x="259" y="199"/>
      <point x="187" y="199" type="curve" smooth="yes"/>
      <point x="129" y="199"/>
      <point x="82" y="241"/>
      <point x="82" y="302" type="curve" smooth="yes"/>
      <point x="82" y="354"/>
      <point x="117" y="392"/>
      <point x="177" y="392" type="curve" smooth="yes"/>
      <point x="236" y="392"/>
      <point x="286" y="332"/>
    </contour>
  </outline>
</glyph>
<glyph name="notequal" format="2">
  <advance width="487"/>
  <unicode hex="2260"/>
  <outline>
    <contour>
      <point x="117" y="55" type="line"/>
      <point x="390" y="537" type="line"/>
      <point x="360" y="552" type="line"/>
      <point x="88" y="69" type="line"/>
    </contour>
    <contour>
      <point x="460" y="185" type="line"/>
      <point x="460" y="237" type="line"/>
      <point x="26" y="237" type="line"/>
      <point x="26" y="185" type="line"/>
    </contour>
    <contour>
      <point x="460" y="369" type="line"/>
      <point x="460" y="421" type="line"/>
      <point x="26" y="421" type="line"/>
      <point x="26" y="369" type="line"/>
    </contour>
  </outline>
</glyph>
<glyph name="lessequal" format="2">
  <advance width="487"/>
  <unicode hex="2264"/>
  <outline>
    <contour>
      <point x="460" y="0" type="line"/>
      <point x="460" y="51" type="line"/>
      <point x="26" y="51" type="line"/>
      <point x="26" y="0" type="line"/>
    </contour>
    <contour>
      <point x="41" y="282" type="line"/>
      <point x="406" y="92" type="line"/>
      <point x="434" y="140" type="line"/>
      <point x="95" y="310" type="line"/>
      <point x="95" y="297" type="line"/>
      <point x="434" y="466" type="line"/>
      <point x="406" y="514" type="line"/>
      <point x="41" y="324" type="line"/>
    </contour>
  </outline>
</glyph>
<glyph name="greaterequal" format="2">
  <advance width="487"/>
  <unicode hex="2265"/>
  <outline>
    <contour>
      <point x="26" y="0" type="line"/>
      <point x="460" y="0" type="line"/>
      <point x="460" y="51" type="line"/>
      <point x="26" y="51" type="line"/>
    </contour>
    <contour>
      <point x="446" y="282" type="line"/>
      <point x="446" y="324" type="line"/>
      <point x="80" y="514" type="line"/>
      <point x="53" y="466" type="line"/>
      <point x="391" y="297" type="line"/>
      <point x="391" y="310" type="line"/>
      <point x="53" y="140" type="line"/>
      <point x="80" y="92" type="line"/>
    </contour>
  </outline>
</glyph>
<glyph name="lozenge" format="2">
  <advance width="533"/>
  <unicode hex="25CA"/>
  <outline>
    <contour>
      <point x="398" y="299" type="line"/>
      <point x="266" y="36" type="line"/>
      <point x="135" y="299" type="line"/>
      <point x="266" y="556" type="line"/>
    </contour>
    <contour>
      <point x="455" y="299" type="line"/>
      <point x="272" y="644" type="line"/>
      <point x="261" y="644" type="line"/>
      <point x="78" y="299" type="line"/>
      <point x="261" y="-50" type="line"/>
      <point x="272" y="-50" type="line"/>
    </contour>
  </outline>
</glyph>
<glyph name="uniA4D0" format="2">
  <advance width="474"/>
  <unicode hex="A4D0"/>
  <outline>
    <contour>
      <point x="56" y="0" type="line"/>
      <point x="236" y="0" type="line" smooth="yes"/>
      <point x="359" y="0"/>
      <point x="426" y="51"/>
      <point x="426" y="162" type="curve" smooth="yes"/>
      <point x="426" y="230"/>
      <point x="377" y="273"/>
      <point x="315" y="284" type="curve"/>
      <point x="315" y="266" type="line"/>
      <point x="372" y="295"/>
      <point x="396" y="333"/>
      <point x="396" y="387" type="curve" smooth="yes"/>
      <point x="396" y="475"/>
      <point x="339" y="530"/>
      <point x="216" y="530" type="curve" smooth="yes"/>
      <point x="56" y="530" type="line"/>
    </contour>
    <contour>
      <point x="124" y="40" type="line"/>
      <point x="124" y="260" type="line"/>
      <point x="88" y="238" type="line"/>
      <point x="242" y="238" type="line" smooth="yes"/>
      <point x="307" y="238"/>
      <point x="358" y="213"/>
      <point x="358" y="157" type="curve" smooth="yes"/>
      <point x="358" y="97"/>
      <point x="307" y="64"/>
      <point x="242" y="64" type="curve" smooth="yes"/>
      <point x="88" y="64" type="line"/>
    </contour>
    <contour>
      <point x="124" y="280" type="line"/>
      <point x="124" y="490" type="line"/>
      <point x="88" y="466" type="line"/>
      <point x="222" y="466" type="line" smooth="yes"/>
      <point x="287" y="466"/>
      <point x="328" y="431"/>
      <point x="328" y="382" type="curve" smooth="yes"/>
      <point x="328" y="329"/>
      <point x="287" y="302"/>
      <point x="222" y="302" type="curve" smooth="yes"/>
      <point x="88" y="302" type="line"/>
    </contour>
  </outline>
</glyph>
<glyph name="uniA4D2" format="2">
  <advance width="477"/>
  <unicode hex="A4D2"/>
  <outline>
    <contour>
      <point x="237" y="0" type="curve" smooth="yes"/>
      <point x="417" y="0" type="line"/>
      <point x="417" y="530" type="line"/>
      <point x="349" y="530" type="line"/>
      <point x="349" y="306" type="line"/>
      <point x="385" y="336" type="line"/>
      <point x="237" y="336" type="line" smooth="yes"/>
      <point x="133" y="336"/>
      <point x="52" y="286"/>
      <point x="52" y="165" type="curve" smooth="yes"/>
      <point x="52" y="50"/>
      <point x="133" y="0"/>
    </contour>
    <contour>
      <point x="349" y="40" type="line"/>
      <point x="385" y="64" type="line"/>
      <point x="231" y="64" type="line" smooth="yes"/>
      <point x="161" y="64"/>
      <point x="120" y="110"/>
      <point x="120" y="170" type="curve" smooth="yes"/>
      <point x="120" y="230"/>
      <point x="161" y="272"/>
      <point x="231" y="272" type="curve" smooth="yes"/>
      <point x="385" y="272" type="line"/>
      <point x="349" y="286" type="line"/>
    </contour>
  </outline>
</glyph>
<glyph name="uniA4D6" format="2">
  <advance width="540"/>
  <unicode hex="A4D6"/>
  <outline>
    <contour>
      <point x="286" y="-8" type="curve" smooth="yes"/>
      <point x="366" y="-8"/>
      <point x="426" y="26"/>
      <point x="488" y="76" type="curve"/>
      <point x="488" y="272" type="line"/>
      <point x="281" y="272" type="line"/>
      <point x="281" y="208" type="line"/>
      <point x="420" y="208" type="line"/>
      <point x="420" y="72" type="line"/>
      <point x="456" y="139" type="line"/>
      <point x="400" y="84"/>
      <point x="341" y="56"/>
      <point x="286" y="56" type="curve" smooth="yes"/>
      <point x="181" y="56"/>
      <point x="120" y="139"/>
      <point x="120" y="265" type="curve" smooth="yes"/>
      <point x="120" y="391"/>
      <point x="181" y="474"/>
      <point x="286" y="474" type="curve" smooth="yes"/>
      <point x="351" y="474"/>
      <point x="398" y="437"/>
      <point x="420" y="387" type="curve"/>
      <point x="482" y="413" type="line"/>
      <point x="446" y="488"/>
      <point x="386" y="538"/>
      <point x="286" y="538" type="curve" smooth="yes"/>
      <point x="123" y="538"/>
      <point x="52" y="406"/>
      <point x="52" y="260" type="curve" smooth="yes"/>
      <point x="52" y="113"/>
      <point x="123" y="-8"/>
    </contour>
  </outline>
</glyph>
<glyph name="uniA4D9" format="2">
  <advance width="436"/>
  <unicode hex="A4D9"/>
  <outline>
    <contour>
      <point x="212" y="-8" type="curve" smooth="yes"/>
      <point x="312" y="-8"/>
      <point x="376" y="70"/>
      <point x="376" y="190" type="curve" smooth="yes"/>
      <point x="376" y="530" type="line"/>
      <point x="308" y="530" type="line"/>
      <point x="308" y="174" type="line" smooth="yes"/>
      <point x="308" y="100"/>
      <point x="267" y="56"/>
      <point x="212" y="56" type="curve" smooth="yes"/>
      <point x="157" y="56"/>
      <point x="116" y="96"/>
      <point x="116" y="154" type="curve" smooth="yes"/>
      <point x="116" y="185" type="line"/>
      <point x="48" y="185" type="line"/>
      <point x="48" y="160" type="line" smooth="yes"/>
      <point x="48" y="66"/>
      <point x="112" y="-8"/>
    </contour>
  </outline>
</glyph>
<glyph name="uniA4DB" format="2">
  <advance width="502"/>
  <unicode hex="A4DB"/>
  <outline>
    <contour>
      <point x="236" y="-8" type="curve" smooth="yes"/>
      <point x="381" y="-8"/>
      <point x="450" y="120"/>
      <point x="450" y="270" type="curve" smooth="yes"/>
      <point x="450" y="420"/>
      <point x="381" y="542"/>
      <point x="236" y="538" type="curve" smooth="yes"/>
      <point x="134" y="535"/>
      <point x="81" y="473"/>
      <point x="54" y="398" type="curve"/>
      <point x="121" y="380" type="line"/>
      <point x="139" y="425"/>
      <point x="185" y="474"/>
      <point x="236" y="474" type="curve" smooth="yes"/>
      <point x="331" y="474"/>
      <point x="382" y="386"/>
      <point x="382" y="265" type="curve" smooth="yes"/>
      <point x="382" y="144"/>
      <point x="331" y="56"/>
      <point x="236" y="56" type="curve" smooth="yes"/>
      <point x="176" y="56"/>
      <point x="130" y="110"/>
      <point x="111" y="177" type="curve"/>
      <point x="44" y="158" type="line"/>
      <point x="75" y="52"/>
      <point x="136" y="-8"/>
    </contour>
  </outline>
</glyph>
<glyph name="uniA4DC" format="2">
  <advance width="478"/>
  <unicode hex="A4DC"/>
  <outline>
    <contour>
      <point x="44" y="0" type="line"/>
      <point x="434" y="0" type="line"/>
      <point x="434" y="64" type="line"/>
      <point x="98" y="64" type="line"/>
      <point x="107" y="45" type="line"/>
      <point x="429" y="455" type="line"/>
      <point x="429" y="530" type="line"/>
      <point x="54" y="530" type="line"/>
      <point x="54" y="466" type="line"/>
      <point x="376" y="466" type="line"/>
      <point x="366" y="485" type="line"/>
      <point x="44" y="75" type="line"/>
    </contour>
  </outline>
</glyph>
<glyph name="uniA4DF" format="2">
  <advance width="562"/>
  <unicode hex="A4DF"/>
  <outline>
    <contour>
      <point x="60" y="0" type="line"/>
      <point x="128" y="0" type="line"/>
      <point x="128" y="402" type="line"/>
      <point x="227" y="246" type="line" smooth="yes"/>
      <point x="240" y="226"/>
      <point x="256" y="211"/>
      <point x="281" y="211" type="curve" smooth="yes"/>
      <point x="306" y="211"/>
      <point x="322" y="226"/>
      <point x="335" y="246" type="curve" smooth="yes"/>
      <point x="434" y="402" type="line"/>
      <point x="434" y="0" type="line"/>
      <point x="502" y="0" type="line"/>
      <point x="502" y="530" type="line"/>
      <point x="439" y="530" type="line"/>
      <point x="259" y="245" type="line"/>
      <point x="303" y="245" type="line"/>
      <point x="123" y="530" type="line"/>
      <point x="60" y="530" type="line"/>
    </contour>
  </outline>
</glyph>
<glyph name="uniA4E0" format="2">
  <advance width="498"/>
  <unicode hex="A4E0"/>
  <outline>
    <contour>
      <point x="60" y="0" type="line"/>
      <point x="128" y="0" type="line"/>
      <point x="128" y="435" type="line"/>
      <point x="111" y="428" type="line"/>
      <point x="375" y="0" type="line"/>
      <point x="438" y="0" type="line"/>
      <point x="438" y="530" type="line"/>
      <point x="370" y="530" type="line"/>
      <point x="370" y="95" type="line"/>
      <point x="387" y="102" type="line"/>
      <point x="123" y="530" type="line"/>
      <point x="60" y="530" type="line"/>
    </contour>
  </outline>
</glyph>
<glyph name="uniA4E3" format="2">
  <advance width="480"/>
  <unicode hex="A4E3"/>
  <outline>
    <contour>
      <point x="60" y="0" type="line"/>
      <point x="128" y="0" type="line"/>
      <point x="128" y="250" type="line"/>
      <point x="92" y="220" type="line"/>
      <point x="262" y="220" type="line" smooth="yes"/>
      <point x="375" y="220"/>
      <point x="428" y="289"/>
      <point x="428" y="382" type="curve" smooth="yes"/>
      <point x="428" y="470"/>
      <point x="375" y="530"/>
      <point x="262" y="530" type="curve" smooth="yes"/>
      <point x="60" y="530" type="line"/>
    </contour>
    <contour>
      <point x="362" y="0" type="curve"/>
      <point x="440" y="0" type="line"/>
      <point x="398" y="80"/>
      <point x="334" y="240"/>
      <point x="277" y="260" type="curve"/>
      <point x="188" y="260" type="line"/>
      <point x="269" y="220"/>
      <point x="321" y="89"/>
    </contour>
    <contour>
      <point x="128" y="270" type="line"/>
      <point x="128" y="480" type="line"/>
      <point x="92" y="466" type="line"/>
      <point x="268" y="466" type="line" smooth="yes"/>
      <point x="323" y="466"/>
      <point x="360" y="426"/>
      <point x="360" y="377" type="curve" smooth="yes"/>
      <point x="360" y="324"/>
      <point x="323" y="284"/>
      <point x="268" y="284" type="curve" smooth="yes"/>
      <point x="92" y="284" type="line"/>
    </contour>
  </outline>
</glyph>
<glyph name="uniA4E4" format="2">
  <advance width="484"/>
  <unicode hex="A4E4"/>
  <outline>
    <contour>
      <point x="217" y="0" type="curve" smooth="yes"/>
      <point x="424" y="0" type="line"/>
      <point x="424" y="530" type="line"/>
      <point x="356" y="530" type="line"/>
      <point x="356" y="280" type="line"/>
      <point x="392" y="310" type="line"/>
      <point x="217" y="310" type="line" smooth="yes"/>
      <point x="104" y="310"/>
      <point x="51" y="241"/>
      <point x="51" y="148" type="curve" smooth="yes"/>
      <point x="51" y="60"/>
      <point x="104" y="0"/>
    </contour>
    <contour>
      <point x="356" y="50" type="line"/>
      <point x="392" y="64" type="line"/>
      <point x="211" y="64" type="line" smooth="yes"/>
      <point x="156" y="64"/>
      <point x="119" y="104"/>
      <point x="119" y="153" type="curve" smooth="yes"/>
      <point x="119" y="206"/>
      <point x="156" y="246"/>
      <point x="211" y="246" type="curve" smooth="yes"/>
      <point x="392" y="246" type="line"/>
      <point x="356" y="260" type="line"/>
    </contour>
    <contour>
      <point x="207" y="270" type="curve"/>
      <point x="296" y="270" type="line"/>
      <point x="215" y="310"/>
      <point x="163" y="441"/>
      <point x="122" y="530" type="curve"/>
      <point x="44" y="530" type="line"/>
      <point x="86" y="450"/>
      <point x="150" y="290"/>
    </contour>
  </outline>
</glyph>
<glyph name="uniA4E7" format="2">
  <advance width="506"/>
  <unicode hex="A4E7"/>
  <outline>
    <contour>
      <point x="64" y="0" type="line"/>
      <point x="132" y="0" type="line"/>
      <point x="132" y="238" type="line"/>
      <point x="374" y="238" type="line"/>
      <point x="374" y="0" type="line"/>
      <point x="442" y="0" type="line"/>
      <point x="442" y="530" type="line"/>
      <point x="374" y="530" type="line"/>
      <point x="374" y="302" type="line"/>
      <point x="132" y="302" type="line"/>
      <point x="132" y="530" type="line"/>
      <point x="64" y="530" type="line"/>
    </contour>
  </outline>
</glyph>
<glyph name="uniA4E8" format="2">
  <advance width="540"/>
  <unicode hex="A4E8"/>
  <outline>
    <contour>
      <point x="252" y="-8" type="curve" smooth="yes"/>
      <point x="418" y="-8"/>
      <point x="488" y="124"/>
      <point x="488" y="270" type="curve" smooth="yes"/>
      <point x="488" y="417"/>
      <point x="418" y="538"/>
      <point x="252" y="538" type="curve" smooth="yes"/>
      <point x="172" y="538"/>
      <point x="117" y="499"/>
      <point x="58" y="449" type="curve"/>
      <point x="58" y="253" type="line"/>
      <point x="252" y="253" type="line"/>
      <point x="252" y="317" type="line"/>
      <point x="126" y="317" type="line"/>
      <point x="126" y="453" type="line"/>
      <point x="90" y="382" type="line"/>
      <point x="138" y="437"/>
      <point x="197" y="474"/>
      <point x="252" y="474" type="curve" smooth="yes"/>
      <point x="360" y="474"/>
      <point x="420" y="391"/>
      <point x="420" y="265" type="curve" smooth="yes"/>
      <point x="420" y="139"/>
      <point x="360" y="56"/>
      <point x="252" y="56" type="curve" smooth="yes"/>
      <point x="192" y="56"/>
      <point x="139" y="92"/>
      <point x="109" y="142" type="curve"/>
      <point x="52" y="113" type="line"/>
      <point x="93" y="38"/>
      <point x="147" y="-8"/>
    </contour>
  </outline>
</glyph>
<glyph name="uniA4E9" format="2">
  <advance width="440"/>
  <unicode hex="A4E9"/>
  <outline>
    <contour>
      <point x="60" y="0" type="line"/>
      <point x="128" y="0" type="line"/>
      <point x="128" y="356" type="line" smooth="yes"/>
      <point x="128" y="430"/>
      <point x="169" y="474"/>
      <point x="224" y="474" type="curve" smooth="yes"/>
      <point x="279" y="474"/>
      <point x="320" y="434"/>
      <point x="320" y="376" type="curve" smooth="yes"/>
      <point x="320" y="345" type="line"/>
      <point x="388" y="345" type="line"/>
      <point x="388" y="370" type="line" smooth="yes"/>
      <point x="388" y="464"/>
      <point x="324" y="538"/>
      <point x="224" y="538" type="curve" smooth="yes"/>
      <point x="124" y="538"/>
      <point x="60" y="460"/>
      <point x="60" y="340" type="curve" smooth="yes"/>
    </contour>
  </outline>
</glyph>
<glyph name="uniA4EA" format="2">
  <advance width="682"/>
  <unicode hex="A4EA"/>
  <outline>
    <contour>
      <point x="159" y="0" type="line"/>
      <point x="239" y="0" type="line"/>
      <point x="347" y="387" type="line"/>
      <point x="335" y="387" type="line"/>
      <point x="443" y="0" type="line"/>
      <point x="523" y="0" type="line"/>
      <point x="638" y="530" type="line"/>
      <point x="568" y="530" type="line"/>
      <point x="478" y="81" type="line"/>
      <point x="488" y="81" type="line"/>
      <point x="383" y="450" type="line" smooth="yes"/>
      <point x="376" y="475"/>
      <point x="365" y="496"/>
      <point x="341" y="496" type="curve" smooth="yes"/>
      <point x="319" y="496"/>
      <point x="306" y="475"/>
      <point x="299" y="450" type="curve" smooth="yes"/>
      <point x="194" y="81" type="line"/>
      <point x="204" y="81" type="line"/>
      <point x="114" y="530" type="line"/>
      <point x="44" y="530" type="line"/>
    </contour>
  </outline>
</glyph>
<glyph name="uniA4EB" format="2">
  <advance width="544"/>
  <unicode hex="A4EB"/>
  <outline>
    <contour>
      <point x="418" y="0" type="line"/>
      <point x="500" y="0" type="line"/>
      <point x="136" y="530" type="line"/>
      <point x="54" y="530" type="line"/>
    </contour>
    <contour>
      <point x="44" y="0" type="line"/>
      <point x="121" y="0" type="line"/>
      <point x="281" y="236" type="line"/>
      <point x="252" y="307" type="line"/>
    </contour>
    <contour>
      <point x="296" y="241" type="line"/>
      <point x="490" y="530" type="line"/>
      <point x="412" y="530" type="line"/>
      <point x="267" y="312" type="line"/>
    </contour>
  </outline>
</glyph>
<glyph name="uniA4EC" format="2">
  <advance width="532"/>
  <unicode hex="A4EC"/>
  <outline>
    <contour>
      <point x="232" y="0" type="line"/>
      <point x="300" y="0" type="line"/>
      <point x="300" y="223" type="line"/>
      <point x="488" y="530" type="line"/>
      <point x="408" y="530" type="line"/>
      <point x="250" y="262" type="line"/>
      <point x="282" y="262" type="line"/>
      <point x="124" y="530" type="line"/>
      <point x="44" y="530" type="line"/>
      <point x="232" y="223" type="line"/>
    </contour>
  </outline>
</glyph>
<glyph name="uniA4EF" format="2">
  <advance width="554"/>
  <unicode hex="A4EF"/>
  <outline>
    <contour>
      <point x="242" y="0" type="line"/>
      <point x="312" y="0" type="line"/>
      <point x="514" y="530" type="line"/>
      <point x="440" y="530" type="line"/>
      <point x="395" y="408" type="line"/>
      <point x="442" y="422" type="line"/>
      <point x="112" y="422" type="line"/>
      <point x="159" y="408" type="line"/>
      <point x="114" y="530" type="line"/>
      <point x="40" y="530" type="line"/>
    </contour>
    <contour>
      <point x="267" y="66" type="line"/>
      <point x="287" y="66" type="line"/>
      <point x="171" y="377" type="line"/>
      <point x="140" y="363" type="line"/>
      <point x="414" y="363" type="line"/>
      <point x="383" y="377" type="line"/>
    </contour>
  </outline>
</glyph>
<glyph name="uniA4F0" format="2">
  <advance width="434"/>
  <unicode hex="A4F0"/>
  <outline>
    <contour>
      <point x="56" y="0" type="line"/>
      <point x="390" y="0" type="line"/>
      <point x="390" y="64" type="line"/>
      <point x="124" y="64" type="line"/>
      <point x="124" y="466" type="line"/>
      <point x="380" y="466" type="line"/>
      <point x="380" y="530" type="line"/>
      <point x="56" y="530" type="line"/>
    </contour>
    <contour>
      <point x="88" y="238" type="line"/>
      <point x="340" y="238" type="line"/>
      <point x="340" y="302" type="line"/>
      <point x="88" y="302" type="line"/>
    </contour>
  </outline>
</glyph>
<glyph name="uniA4F2" format="2">
  <advance width="218"/>
  <unicode hex="A4F2"/>
  <outline>
    <contour>
      <point x="75" y="0" type="line"/>
      <point x="143" y="0" type="line"/>
      <point x="143" y="530" type="line"/>
      <point x="75" y="530" type="line"/>
    </contour>
  </outline>
</glyph>
<glyph name="uniA4F3" format="2">
  <advance width="524"/>
  <unicode hex="A4F3"/>
  <outline>
    <contour>
      <point x="262" y="-8" type="curve" smooth="yes"/>
      <point x="407" y="-8"/>
      <point x="476" y="120"/>
      <point x="476" y="270" type="curve" smooth="yes"/>
      <point x="476" y="420"/>
      <point x="407" y="538"/>
      <point x="262" y="538" type="curve" smooth="yes"/>
      <point x="117" y="538"/>
      <point x="48" y="410"/>
      <point x="48" y="260" type="curve" smooth="yes"/>
      <point x="48" y="110"/>
      <point x="117" y="-8"/>
    </contour>
    <contour>
      <point x="262" y="56" type="curve" smooth="yes"/>
      <point x="167" y="56"/>
      <point x="116" y="146"/>
      <point x="116" y="265" type="curve" smooth="yes"/>
      <point x="116" y="388"/>
      <point x="167" y="474"/>
      <point x="262" y="474" type="curve" smooth="yes"/>
      <point x="357" y="474"/>
      <point x="408" y="384"/>
      <point x="408" y="265" type="curve" smooth="yes"/>
      <point x="408" y="142"/>
      <point x="357" y="56"/>
    </contour>
  </outline>
</glyph>
<glyph name="uniA4F4" format="2">
  <advance width="508"/>
  <unicode hex="A4F4"/>
  <outline>
    <contour>
      <point x="254" y="-8" type="curve" smooth="yes"/>
      <point x="384" y="-8"/>
      <point x="448" y="92"/>
      <point x="448" y="226" type="curve" smooth="yes"/>
      <point x="448" y="530" type="line"/>
      <point x="380" y="530" type="line"/>
      <point x="380" y="214" type="line" smooth="yes"/>
      <point x="380" y="114"/>
      <point x="328" y="56"/>
      <point x="254" y="56" type="curve" smooth="yes"/>
      <point x="180" y="56"/>
      <point x="128" y="114"/>
      <point x="128" y="214" type="curve" smooth="yes"/>
      <point x="128" y="530" type="line"/>
      <point x="60" y="530" type="line"/>
      <point x="60" y="226" type="line" smooth="yes"/>
      <point x="60" y="92"/>
      <point x="124" y="-8"/>
    </contour>
  </outline>
</glyph>
<glyph name="uniA4F6" format="2">
  <advance width="422"/>
  <unicode hex="A4F6"/>
  <outline>
    <contour>
      <point x="294" y="0" type="line"/>
      <point x="362" y="0" type="line"/>
      <point x="362" y="530" type="line"/>
      <point x="48" y="530" type="line"/>
      <point x="48" y="466" type="line"/>
      <point x="294" y="466" type="line"/>
    </contour>
  </outline>
</glyph>
<glyph name="uniA4F9" format="2">
  <advance width="240"/>
  <unicode hex="A4F9"/>
  <outline>
    <contour>
      <point x="64" y="-160" type="line"/>
      <point x="153" y="-127"/>
      <point x="196" y="-60"/>
      <point x="196" y="21" type="curve" smooth="yes"/>
      <point x="196" y="86"/>
      <point x="170" y="120"/>
      <point x="123" y="120" type="curve" smooth="yes"/>
      <point x="85" y="120"/>
      <point x="60" y="91"/>
      <point x="60" y="53" type="curve" smooth="yes"/>
      <point x="60" y="15"/>
      <point x="83" y="-8"/>
      <point x="111" y="-8" type="curve" smooth="yes"/>
      <point x="139" y="-8"/>
      <point x="166" y="13"/>
      <point x="166" y="41" type="curve"/>
      <point x="159" y="41"/>
      <point x="133" y="41"/>
      <point x="124" y="41" type="curve"/>
      <point x="131" y="29"/>
      <point x="137" y="14"/>
      <point x="137" y="-17" type="curve" smooth="yes"/>
      <point x="137" y="-69"/>
      <point x="96" y="-98"/>
      <point x="54" y="-118" type="curve"/>
    </contour>
  </outline>
</glyph>
